<?xml version="1.0" encoding="UTF-8" standalone="no"?>
<!-- Created with Inkscape (http://www.inkscape.org/) -->

<svg
   xmlns:dc="http://purl.org/dc/elements/1.1/"
   xmlns:cc="http://creativecommons.org/ns#"
   xmlns:rdf="http://www.w3.org/1999/02/22-rdf-syntax-ns#"
   xmlns:svg="http://www.w3.org/2000/svg"
   xmlns="http://www.w3.org/2000/svg"
   xmlns:sodipodi="http://sodipodi.sourceforge.net/DTD/sodipodi-0.dtd"
   xmlns:inkscape="http://www.inkscape.org/namespaces/inkscape"
   version="1.1"
   id="svg2044"
   width="512"
   height="512"
   viewBox="0 0 512 512"
   sodipodi:docname="sn4ke.svg"
   inkscape:version="0.92.5 (2060ec1f9f, 2020-04-08)">
  <metadata
     id="metadata2050">
    <rdf:RDF>
      <cc:Work
         rdf:about="">
        <dc:format>image/svg+xml</dc:format>
        <dc:type
           rdf:resource="http://purl.org/dc/dcmitype/StillImage" />
        <dc:title></dc:title>
      </cc:Work>
    </rdf:RDF>
  </metadata>
  <defs
     id="defs2048" />
  <sodipodi:namedview
     pagecolor="#ffffff"
     bordercolor="#666666"
     borderopacity="1"
     objecttolerance="10"
     gridtolerance="10"
     guidetolerance="10"
     inkscape:pageopacity="0"
     inkscape:pageshadow="2"
     inkscape:window-width="1920"
     inkscape:window-height="1011"
     id="namedview2046"
     showgrid="false"
     inkscape:zoom="0.80371094"
     inkscape:cx="203.64083"
     inkscape:cy="262.20462"
     inkscape:window-x="0"
     inkscape:window-y="0"
     inkscape:window-maximized="1"
     inkscape:current-layer="svg2044" />
  <g
     id="g2062">
    <path
       style="fill:#fed200"
       d="M 0,256 V 0 H 256 512 V 256 512 H 256 0 Z"
       id="path2070"
       inkscape:connector-curvature="0" />
    <path
       style="fill:#0176bc"
       d="M 48,256 V 48 h 48 48 V 208 368 H 256 368 V 256 144 H 288 208 V 96 48 H 336 464 V 256 464 H 256 48 Z m 160,0 v -48 h 48 48 v 48 48 h -48 -48 z"
       id="path2068"
       inkscape:connector-curvature="0" />
    <path
       style="fill:#d74214"
       d="m 208,256 v -48 h 48 48 v 48 48 H 256 208 Z M 208,96 V 48 h 48 48 v 48 48 h -48 -48 z"
       id="path2066"
       inkscape:connector-curvature="0" />
    <path
       style="fill:#00569a"
       d="M 208,96 V 48 h 48 48 v 48 48 h -48 -48 z"
       id="path2064"
       inkscape:connector-curvature="0" />
  </g>
</svg>
