<?xml version="1.0" encoding="UTF-8" standalone="no"?>
<!-- Created with Inkscape (http://www.inkscape.org/) -->

<svg
   xmlns:dc="http://purl.org/dc/elements/1.1/"
   xmlns:cc="http://creativecommons.org/ns#"
   xmlns:rdf="http://www.w3.org/1999/02/22-rdf-syntax-ns#"
   xmlns:svg="http://www.w3.org/2000/svg"
   xmlns="http://www.w3.org/2000/svg"
   xmlns:sodipodi="http://sodipodi.sourceforge.net/DTD/sodipodi-0.dtd"
   xmlns:inkscape="http://www.inkscape.org/namespaces/inkscape"
   version="1.1"
   id="svg64"
   width="512"
   height="512"
   viewBox="0 0 512 512"
   sodipodi:docname="whatcolor.svg"
   inkscape:version="0.92.5 (2060ec1f9f, 2020-04-08)">
  <metadata
     id="metadata70">
    <rdf:RDF>
      <cc:Work
         rdf:about="">
        <dc:format>image/svg+xml</dc:format>
        <dc:type
           rdf:resource="http://purl.org/dc/dcmitype/StillImage" />
        <dc:title></dc:title>
      </cc:Work>
    </rdf:RDF>
  </metadata>
  <defs
     id="defs68" />
  <sodipodi:namedview
     pagecolor="#ffffff"
     bordercolor="#666666"
     borderopacity="1"
     objecttolerance="10"
     gridtolerance="10"
     guidetolerance="10"
     inkscape:pageopacity="0"
     inkscape:pageshadow="2"
     inkscape:window-width="1920"
     inkscape:window-height="1011"
     id="namedview66"
     showgrid="false"
     inkscape:zoom="1.6074219"
     inkscape:cx="250.76892"
     inkscape:cy="205.60875"
     inkscape:window-x="0"
     inkscape:window-y="0"
     inkscape:window-maximized="1"
     inkscape:current-layer="svg64" />
  <g
     id="g134">
    <path
       style="fill:#fed440"
       d="M 0,256 V 0 H 256 512 V 256 512 H 256 0 Z"
       id="path150"
       inkscape:connector-curvature="0" />
    <path
       style="fill:#f8a21a"
       d="M 0,256 V 0 H 256 512 V 128 256 H 384 256 v 104 104 h 128 128 v 24 24 H 256 0 Z"
       id="path148"
       inkscape:connector-curvature="0" />
    <path
       style="fill:#275bc3"
       d="M 0,256 V 0 H 256 512 V 128 256 H 384 256 V 384 512 H 128 0 Z"
       id="path146"
       inkscape:connector-curvature="0" />
    <path
       style="fill:#de3d22"
       d="M 0,360 V 208 H 128 256 V 104 0 H 384 512 V 128 256 H 384 256 V 384 512 H 128 0 Z"
       id="path144"
       inkscape:connector-curvature="0" />
    <path
       style="fill:#b31f29"
       d="M 0,360 V 208 h 256 256 v 24 24 H 384 256 V 384 512 H 128 0 Z"
       id="path142"
       inkscape:connector-curvature="0" />
    <path
       style="fill:#139f2d"
       d="M 0,360 V 208 H 128 256 V 360 512 H 128 0 Z"
       id="path140"
       inkscape:connector-curvature="0" />
    <path
       style="fill:#19793d"
       d="m 0,488 v -24 h 128 128 v 24 24 H 128 0 Z M 0,232 v -24 h 128 128 v 24 24 H 128 0 Z"
       id="path138"
       inkscape:connector-curvature="0" />
    <path
       style="fill:#133363"
       d="m 0,232 v -24 h 128 128 v 24 24 H 128 0 Z"
       id="path136"
       inkscape:connector-curvature="0" />
  </g>
</svg>
