<?xml version="1.0" standalone="no"?>
<!DOCTYPE svg PUBLIC "-//W3C//DTD SVG 20010904//EN"
 "http://www.w3.org/TR/2001/REC-SVG-20010904/DTD/svg10.dtd">
<svg version="1.0" xmlns="http://www.w3.org/2000/svg"
 width="728.000000pt" height="728.000000pt" viewBox="0 0 728.000000 728.000000"
 preserveAspectRatio="xMidYMid meet">
<metadata>
Created by potrace 1.14, written by Peter Selinger 2001-2017
</metadata>
<g transform="translate(0.000000,728.000000) scale(0.100000,-0.100000)"
fill="#000000" stroke="none">
<path d="M5855 7270 c-155 -38 -232 -152 -227 -335 3 -102 42 -192 104 -238
38 -28 113 -59 122 -50 3 4 6 2 6 -3 0 -9 170 -10 220 -1 71 13 157 72 186
130 74 143 49 352 -52 436 -21 17 -58 38 -83 47 -50 18 -225 27 -276 14z"/>
<path d="M3476 7083 c-1 -1 -24 -4 -51 -7 -47 -6 -64 -9 -125 -22 -14 -3 -35
-7 -48 -10 -95 -20 -246 -108 -334 -195 -192 -191 -270 -419 -263 -769 2 -140
7 -180 29 -268 25 -94 69 -210 84 -222 4 -3 15 -22 26 -42 41 -81 232 -238
288 -238 9 0 19 -4 22 -8 5 -9 75 -26 163 -41 77 -12 239 -5 318 14 66 16 186
69 221 97 48 39 114 109 143 151 18 26 36 45 40 42 11 -6 3 -91 -23 -225 -38
-197 -148 -398 -271 -493 -42 -32 -106 -69 -125 -73 -3 0 -18 -6 -35 -13 -41
-17 -146 -41 -208 -47 -100 -11 -316 -4 -387 11 -14 3 -43 8 -65 10 l-41 5 0
-227 c1 -156 4 -230 12 -235 32 -21 408 -30 544 -14 107 12 111 13 210 36 358
85 606 279 759 595 45 92 104 254 115 315 2 14 9 45 14 70 41 179 60 560 39
760 -13 122 -15 135 -30 205 -68 311 -217 550 -432 694 -70 47 -211 109 -265
117 -14 2 -36 6 -50 9 -66 14 -92 17 -178 18 -52 1 -95 1 -96 0z m177 -498
c89 -13 188 -87 243 -181 43 -74 55 -122 59 -252 5 -150 -29 -247 -115 -333
-44 -44 -126 -94 -174 -106 -11 -3 -52 -7 -91 -9 -240 -13 -370 150 -359 453
2 54 5 105 7 113 2 8 7 33 12 55 21 101 84 193 160 231 65 34 160 44 258 29z"/>
<path d="M1267 6434 c-1 -1 -40 -5 -87 -8 -299 -21 -512 -114 -637 -281 -31
-42 -68 -130 -81 -193 -13 -71 -6 -264 12 -312 9 -25 18 -49 20 -55 16 -64
135 -187 242 -249 88 -51 197 -100 459 -205 271 -108 270 -107 309 -141 45
-40 62 -105 43 -163 -18 -54 -97 -93 -207 -103 -117 -11 -312 0 -420 22 -14 3
-34 6 -45 8 -54 9 -197 51 -298 87 -61 22 -119 43 -127 45 -14 5 -15 -26 -15
-251 0 -221 3 -258 16 -265 49 -28 332 -93 459 -106 187 -19 531 -8 660 21 14
3 41 8 60 11 36 6 186 61 230 85 40 22 91 60 124 94 38 38 96 121 96 138 0 7
4 17 9 23 18 19 40 150 39 244 0 63 -6 121 -19 166 -10 38 -19 72 -19 75 0 14
-85 133 -115 163 -52 52 -127 103 -221 150 -97 48 -363 156 -386 156 -8 0 -18
3 -22 8 -4 4 -11 7 -14 8 -4 0 -20 6 -37 13 -16 6 -60 23 -97 37 -117 44 -164
87 -174 161 -9 68 28 119 101 137 17 4 39 10 50 13 71 16 332 -1 440 -29 22
-5 50 -12 63 -14 22 -4 232 -67 262 -78 11 -5 26 23 64 116 54 137 63 159 99
240 l25 57 -21 14 c-12 8 -40 20 -62 27 -22 7 -49 17 -60 22 -17 7 -76 25
-145 43 -37 9 -219 45 -255 49 -87 12 -312 25 -318 20z"/>
<path d="M5091 6390 c-4 -3 -7 -92 -7 -199 1 -165 3 -194 16 -196 14 -2 123
-14 185 -20 59 -5 160 -17 185 -21 14 -2 50 -6 80 -9 80 -7 122 -14 128 -19 2
-3 4 -54 3 -113 -2 -59 -2 -115 -2 -123 1 -49 0 -113 -2 -168 -1 -34 0 -62 3
-62 6 0 2 -116 -4 -142 -2 -10 -1 -18 2 -18 4 0 6 -33 5 -72 -2 -67 -3 -192
-2 -228 0 -8 0 -46 -1 -85 0 -38 1 -91 2 -116 l3 -46 -110 -18 c-60 -9 -119
-19 -130 -21 -10 -2 -35 -6 -55 -9 -20 -3 -47 -8 -60 -10 -14 -3 -41 -7 -60
-10 -19 -3 -47 -7 -62 -10 -61 -11 -85 -15 -123 -20 -22 -3 -49 -8 -60 -10
-11 -2 -26 -4 -32 -4 -10 -1 -13 -43 -13 -176 l0 -175 943 0 944 0 1 175 c1
96 -2 174 -6 174 -4 -1 -10 0 -14 1 -12 4 -20 5 -73 15 -27 4 -54 9 -60 11 -5
1 -26 5 -45 8 -19 4 -62 12 -95 18 -33 6 -71 12 -85 15 -14 2 -34 5 -45 8 -28
5 -133 25 -173 32 -32 6 -33 8 -31 44 2 21 0 41 -3 45 -4 3 -3 16 2 28 4 13 5
29 0 36 -5 7 -4 23 0 36 5 12 6 24 3 27 -3 3 -4 34 -4 69 1 35 1 72 1 83 -1
11 -1 26 -1 33 3 91 2 122 -3 130 -3 6 -2 13 3 17 7 3 7 15 1 30 -6 15 -6 27
0 30 5 3 6 15 0 29 -4 12 -4 29 0 36 5 8 6 18 3 23 -3 5 -5 37 -4 71 1 33 2
67 2 74 -1 6 -1 22 -1 35 0 12 1 41 2 64 1 24 -1 45 -5 49 -3 3 -2 17 3 30 6
14 6 26 0 29 -5 3 -6 15 0 29 4 12 5 29 0 36 -5 7 -5 23 -1 34 4 12 5 32 1 46
-3 14 -3 44 0 68 4 23 3 45 -1 48 -5 2 -4 16 1 29 6 15 6 27 0 30 -5 3 -6 15
0 29 4 12 5 29 0 36 -5 7 -4 23 0 36 5 12 6 25 3 28 -8 8 -6 122 2 135 3 6 0
11 -7 12 -49 4 -1141 3 -1147 -1z"/>
<path d="M1257 3084 c-1 -2 -27 -6 -57 -9 -30 -3 -80 -13 -110 -21 -30 -8 -66
-17 -80 -20 -47 -9 -205 -92 -265 -139 -204 -158 -328 -388 -373 -690 -9 -64
-9 -377 1 -430 4 -22 9 -56 13 -75 34 -211 173 -457 331 -583 71 -57 185 -127
207 -127 6 0 16 -4 21 -8 11 -10 107 -40 150 -48 17 -2 39 -7 49 -11 35 -10
89 -14 211 -15 124 -1 160 2 288 26 53 10 158 48 213 77 206 109 358 291 438
527 14 40 25 75 25 77 1 3 2 7 2 10 3 10 5 21 12 55 4 19 9 46 12 60 31 152
17 497 -25 635 -34 109 -66 188 -96 238 -18 32 -34 61 -34 63 0 3 -6 12 -12
19 -7 8 -24 29 -38 47 -46 60 -139 145 -207 190 -62 40 -191 102 -203 97 -3
-1 -14 3 -26 9 -11 6 -33 14 -47 17 -15 3 -37 7 -50 10 -64 13 -341 28 -350
19z m213 -457 c70 -16 152 -70 194 -127 89 -123 126 -261 130 -483 2 -107 -2
-169 -19 -270 -18 -107 -79 -234 -142 -295 -133 -129 -399 -126 -538 5 -42 40
-85 96 -85 111 0 4 -8 26 -19 48 -22 47 -48 148 -57 224 -12 102 -6 293 11
380 16 78 31 125 60 185 58 121 147 194 267 219 55 11 154 13 198 3z"/>
<path d="M4286 3082 c-2 -1 -16 -5 -32 -8 -76 -14 -118 -26 -171 -51 -32 -15
-60 -30 -63 -33 -3 -3 -21 -17 -40 -31 -58 -44 -137 -129 -182 -195 -42 -64
-65 -84 -73 -61 -4 10 -16 62 -56 242 -5 22 -11 47 -13 55 -3 8 -5 22 -5 31
-1 15 -40 17 -436 17 l-435 0 -1 -26 c-2 -75 0 -364 3 -367 4 -4 39 -11 103
-20 22 -3 51 -8 65 -10 14 -3 45 -7 70 -10 25 -3 55 -7 67 -9 52 -10 119 -20
126 -18 4 1 7 -105 7 -236 1 -713 -1 -937 -7 -943 -5 -4 -21 -10 -38 -13 -16
-2 -30 -5 -30 -6 0 -2 -21 -6 -69 -14 -21 -3 -41 -8 -45 -10 -3 -2 -24 -7 -46
-10 -22 -4 -68 -13 -102 -21 -35 -8 -75 -17 -91 -20 -26 -5 -59 -12 -92 -20
-8 -2 -18 -4 -21 -4 -3 -1 -5 -79 -5 -173 l1 -173 828 0 827 -1 0 173 c0 155
-2 172 -17 177 -17 4 -45 10 -101 21 -13 2 -31 6 -40 9 -9 3 -33 8 -52 11 -19
3 -55 11 -80 16 -25 6 -54 13 -65 15 -11 2 -58 12 -105 22 l-85 17 0 340 c0
380 4 407 71 542 61 121 158 205 284 243 66 20 242 22 325 4 112 -25 119 -26
134 -28 12 -1 20 15 36 74 2 8 18 62 35 120 17 58 37 128 45 155 8 28 21 73
29 100 21 66 22 62 -21 81 -38 16 -52 20 -108 28 -16 3 -50 8 -75 12 -45 7
-248 12 -254 6z"/>
<path d="M5646 3083 c-2 -2 -16 -6 -32 -9 -42 -7 -127 -35 -141 -47 -7 -5 -13
-7 -13 -3 0 3 -18 -5 -40 -19 -22 -14 -42 -25 -45 -25 -14 0 -131 -112 -172
-165 -63 -82 -151 -265 -167 -346 -2 -13 -10 -46 -16 -74 -7 -27 -14 -68 -16
-90 -2 -21 -7 -51 -10 -65 -10 -43 -12 -402 -3 -465 5 -33 11 -73 13 -90 56
-386 279 -682 565 -752 91 -22 101 -24 180 -27 155 -5 330 39 434 111 47 32
139 121 163 158 25 38 33 30 28 -27 -3 -29 -6 -109 -8 -178 -4 -145 -9 -174
-38 -254 -44 -121 -158 -195 -338 -222 -47 -7 -257 -7 -300 -1 -14 3 -47 8
-75 12 -27 4 -66 11 -85 15 -19 5 -46 11 -60 14 -51 9 -231 67 -285 90 l-55
25 -1 -32 c-5 -143 0 -490 7 -496 14 -13 223 -73 289 -84 17 -3 46 -8 65 -11
82 -14 125 -17 305 -21 429 -8 698 75 894 275 114 117 194 274 216 425 4 22 9
51 12 65 3 14 7 532 9 1151 l3 1127 -214 0 -213 0 -53 -126 c-29 -70 -56 -131
-60 -136 -4 -5 -45 30 -91 77 -46 47 -108 101 -140 121 -61 39 -168 82 -226
92 -41 7 -280 13 -286 7z m424 -468 c30 -4 59 -11 65 -16 5 -5 17 -9 27 -9 10
0 18 -4 18 -10 0 -5 6 -10 13 -10 24 0 103 -87 130 -142 32 -66 38 -83 51
-138 3 -14 8 -36 11 -50 3 -14 8 -55 10 -93 2 -37 7 -72 10 -77 3 -6 1 -10 -6
-10 -7 0 -8 -4 -2 -12 7 -10 10 -213 3 -213 0 0 -3 -20 -5 -45 -2 -25 -7 -54
-9 -65 -3 -11 -9 -36 -14 -55 -21 -81 -72 -172 -122 -217 -41 -36 -101 -62
-180 -79 -26 -6 -144 -5 -170 1 -14 3 -34 7 -45 9 -44 8 -114 48 -155 89 -52
50 -104 157 -126 259 -38 172 -33 420 12 578 51 179 146 275 303 304 67 13 84
13 181 1z"/>
</g>
</svg>
