<?xml version="1.0" encoding="UTF-8" standalone="no"?>
<!-- Created with Inkscape (http://www.inkscape.org/) -->

<svg
   xmlns:dc="http://purl.org/dc/elements/1.1/"
   xmlns:cc="http://creativecommons.org/ns#"
   xmlns:rdf="http://www.w3.org/1999/02/22-rdf-syntax-ns#"
   xmlns:svg="http://www.w3.org/2000/svg"
   xmlns="http://www.w3.org/2000/svg"
   xmlns:sodipodi="http://sodipodi.sourceforge.net/DTD/sodipodi-0.dtd"
   xmlns:inkscape="http://www.inkscape.org/namespaces/inkscape"
   version="1.1"
   id="svg2"
   width="541.33331"
   height="541.33331"
   viewBox="0 0 541.33331 541.33331"
   sodipodi:docname="colorshooter.svg"
   inkscape:version="0.92.5 (2060ec1f9f, 2020-04-08)">
  <metadata
     id="metadata8">
    <rdf:RDF>
      <cc:Work
         rdf:about="">
        <dc:format>image/svg+xml</dc:format>
        <dc:type
           rdf:resource="http://purl.org/dc/dcmitype/StillImage" />
        <dc:title></dc:title>
      </cc:Work>
    </rdf:RDF>
  </metadata>
  <defs
     id="defs6" />
  <sodipodi:namedview
     pagecolor="#ffffff"
     bordercolor="#666666"
     borderopacity="1"
     objecttolerance="10"
     gridtolerance="10"
     guidetolerance="10"
     inkscape:pageopacity="0"
     inkscape:pageshadow="2"
     inkscape:window-width="1920"
     inkscape:window-height="1011"
     id="namedview4"
     showgrid="false"
     inkscape:zoom="0.43596061"
     inkscape:cx="-126.15819"
     inkscape:cy="270.66666"
     inkscape:window-x="0"
     inkscape:window-y="0"
     inkscape:window-maximized="1"
     inkscape:current-layer="svg2" />
  <g
     id="g12"
     transform="translate(0.03757699,2.9882813e-6)">
    <path
       style="fill:#d4d4d4;stroke-width:1.33333325"
       d="M 6.7324898,536.47878 C -0.27865269,524.59578 0,535.38632 0,275.76987 V 34.766699 l 2.8717201,-7.67536 C 6.7466182,16.734746 16.734746,6.7466182 27.091339,2.8717201 L 34.766699,0 H 270.66665 c 233.92489,0 235.96063,0.02269887 243.1461,2.7111292 9.22805,3.4526549 17.85636,11.0445778 22.89883,20.1483268 l 3.95506,7.140543 0.34751,243.245611 c 0.37472,262.29803 0.6426,251.27426 -6.39593,263.20369 l -2.88164,4.88401 H 270.66665 9.5967352 Z"
       id="path74"
       inkscape:connector-curvature="0" />
    <path
       style="fill:#a0a0a0;stroke-width:1.33333325"
       d="m 29.819612,539.88862 c -6.469608,-1.88647 -16.608168,-9.28746 -21.4304378,-15.6439 -8.98807841,-11.84754 -8.45473642,5.09052 -8.07040124,-256.3027 L 0.66666664,31.333332 3.9681877,24.666666 C 8.1775091,16.166905 16.166905,8.1775091 24.666666,3.9681877 L 31.333332,0.66666664 H 270.66665 509.99998 l 6.66666,3.30152106 c 8.50759,4.2131935 16.57788,12.2822173 20.73654,20.7332513 l 3.26346,6.631893 V 270.66665 509.99998 l -3.70637,7.54738 c -4.07039,8.28863 -11.07364,15.34866 -19.90021,20.06154 l -5.72675,3.05774 -238.66666,0.22047 C 131.70104,541.01738 32.288708,540.60858 29.819612,539.88862 Z"
       id="path72"
       inkscape:connector-curvature="0" />
    <path
       style="fill:#edc00e;stroke-width:1.33333325"
       d="M 31.333332,539.92226 C 23.456626,537.61722 12.910262,530.06048 8.4256414,523.50831 -0.63033819,510.27723 -0.07326045,527.83187 0.31511267,267.92943 L 0.66666664,32.666665 3.8032088,25.730939 C 7.7673741,16.965119 18.609314,6.6019133 27.337216,3.2360949 33.826287,0.73365696 40.187769,0.66666664 271.33332,0.66666664 h 237.33332 l 6.93572,3.13654216 c 8.76583,3.9641653 19.12903,14.8061052 22.49486,23.5340072 2.50245,6.489121 2.56942,12.85225 2.56942,244.130594 v 237.46783 l -4.66666,9.14864 c -3.35798,6.58307 -6.48594,10.52206 -11.15402,14.04604 -13.16108,9.93548 6.9919,9.21672 -254.66574,9.08274 -130.45529,-0.0668 -236.624925,-0.64058 -238.846888,-1.2908 z"
       id="path70"
       inkscape:connector-curvature="0" />
    <path
       style="fill:#e7bc0d;stroke-width:1.33333325"
       d="M 31.333332,539.92226 C 23.456626,537.61722 12.910262,530.06048 8.4256414,523.50831 -0.63033819,510.27723 -0.07326045,527.83187 0.31511267,267.92943 L 0.66666664,32.666665 3.8032088,25.730939 C 7.7673741,16.965119 18.609314,6.6019133 27.337216,3.2360949 33.826287,0.73365696 40.187769,0.66666664 271.33332,0.66666664 h 237.33332 l 6.93572,3.13654216 c 8.76583,3.9641653 19.12903,14.8061052 22.49486,23.5340072 2.50245,6.489121 2.56942,12.85225 2.56942,244.130594 v 237.46783 l -4.66666,9.14864 c -3.35798,6.58307 -6.48594,10.52206 -11.15402,14.04604 -13.16108,9.93548 6.9919,9.21672 -254.66574,9.08274 -130.45529,-0.0668 -236.624925,-0.64058 -238.846888,-1.2908 z M 392.66665,239.95879 c 20.07003,-7.5848 34.28421,-21.30168 42.0983,-40.62547 2.86967,-7.09647 3.23503,-10.03293 3.23503,-25.99999 v -18 l -5.20471,-10.66667 c -20.81289,-42.65453 -75.67615,-53.412837 -110.4554,-21.65955 -33.15987,30.27479 -28.79462,84.62695 8.78972,109.44176 6.52884,4.31063 18.97626,9.41263 26.20373,10.74048 8.17737,1.50236 27.47941,-0.26244 35.33333,-3.23056 z"
       id="path68"
       inkscape:connector-curvature="0" />
    <path
       style="fill:#3295d7;stroke-width:1.33333325"
       d="M 31.333332,539.92226 C 23.456626,537.61722 12.910262,530.06048 8.4256414,523.50831 -0.63033819,510.27723 -0.07326045,527.83187 0.31511267,267.92943 L 0.66666664,32.666665 3.8032088,25.730939 C 7.7673741,16.965119 18.609314,6.6019133 27.337216,3.2360949 33.826287,0.73365696 40.187769,0.66666664 271.33332,0.66666664 h 237.33332 l 6.93572,3.13654216 c 8.76583,3.9641653 19.12903,14.8061052 22.49486,23.5340072 2.50245,6.489121 2.56942,12.85225 2.56942,244.130594 v 237.46783 l -4.66666,9.14864 c -3.35798,6.58307 -6.48594,10.52206 -11.15402,14.04604 -13.16108,9.93548 6.9919,9.21672 -254.66574,9.08274 -130.45529,-0.0668 -236.624925,-0.64058 -238.846888,-1.2908 z M 399.15332,237.49655 c 41.59515,-20.13321 53.38291,-70.10364 25.24402,-107.01401 -30.83145,-40.442291 -97.10633,-32.696242 -118.41114,13.83961 -12.59208,27.50474 -6.96577,58.77461 14.35053,79.75733 8.27416,8.14468 15.94014,12.84635 27.66325,16.96632 7.49906,2.63548 10.73339,2.98651 24.00696,2.60552 14.94719,-0.42902 15.64284,-0.58674 27.14638,-6.15477 z"
       id="path66"
       inkscape:connector-curvature="0" />
    <path
       style="fill:#d3ac0c;stroke-width:1.33333325"
       d="M 31.333332,539.92226 C 23.456626,537.61722 12.910262,530.06048 8.4256414,523.50831 -0.63033819,510.27723 -0.07326045,527.83187 0.31511267,267.92943 L 0.66666664,32.666665 3.8032088,25.730939 C 7.7673741,16.965119 18.609314,6.6019133 27.337216,3.2360949 33.826287,0.73365696 40.187769,0.66666664 271.33332,0.66666664 h 237.33332 l 6.93572,3.13654216 c 8.76583,3.9641653 19.12903,14.8061052 22.49486,23.5340072 2.50245,6.489121 2.56942,12.85225 2.56942,244.130594 v 237.46783 l -4.66666,9.14864 c -3.35798,6.58307 -6.48594,10.52206 -11.15402,14.04604 -13.16108,9.93548 6.9919,9.21672 -254.66574,9.08274 -130.45529,-0.0668 -236.624925,-0.64058 -238.846888,-1.2908 z M 383.99998,438.09047 c 22.65602,-4.8707 41.36128,-20.33918 50.40969,-41.68674 15.71795,-37.08272 -4.9344,-81.42664 -43.74302,-93.92333 -11.39369,-3.66887 -29.67239,-3.91939 -40,-0.54823 -24.6785,8.05559 -40.67889,24.05598 -48.73448,48.73448 -3.37116,10.32761 -3.12064,28.60631 0.54823,40 11.04327,34.295 46.53845,54.94424 81.51958,47.42382 z m 15.15334,-200.59392 c 41.59515,-20.13321 53.38291,-70.10364 25.24402,-107.01401 -30.83145,-40.442291 -97.10633,-32.696242 -118.41114,13.83961 -12.59208,27.50474 -6.96577,58.77461 14.35053,79.75733 8.27416,8.14468 15.94014,12.84635 27.66325,16.96632 7.49906,2.63548 10.73339,2.98651 24.00696,2.60552 14.94719,-0.42902 15.64284,-0.58674 27.14638,-6.15477 z"
       id="path64"
       inkscape:connector-curvature="0" />
    <path
       style="fill:#2c83bc;stroke-width:1.33333325"
       d="M 31.333332,539.92226 C 23.456626,537.61722 12.910262,530.06048 8.4256414,523.50831 -0.63033819,510.27723 -0.07326045,527.83187 0.31511267,267.92943 L 0.66666664,32.666665 3.8032088,25.730939 C 7.7673741,16.965119 18.609314,6.6019133 27.337216,3.2360949 33.826287,0.73365696 40.187769,0.66666664 271.33332,0.66666664 h 237.33332 l 6.93572,3.13654216 c 8.76583,3.9641653 19.12903,14.8061052 22.49486,23.5340072 2.50245,6.489121 2.56942,12.85225 2.56942,244.130594 v 237.46783 l -4.66666,9.14864 c -3.35798,6.58307 -6.48594,10.52206 -11.15402,14.04604 -13.16108,9.93548 6.9919,9.21672 -254.66574,9.08274 -130.45529,-0.0668 -236.624925,-0.64058 -238.846888,-1.2908 z M 383.99998,438.09047 c 22.65602,-4.8707 41.36128,-20.33918 50.40969,-41.68674 15.71795,-37.08272 -4.9344,-81.42664 -43.74302,-93.92333 -11.39369,-3.66887 -29.67239,-3.91939 -40,-0.54823 -24.6785,8.05559 -40.67889,24.05598 -48.73448,48.73448 -3.37116,10.32761 -3.12064,28.60631 0.54823,40 11.04327,34.295 46.53845,54.94424 81.51958,47.42382 z m -3.58873,-194.20533 c 27.71128,-4.18524 52.31041,-27.17512 58.08393,-54.28411 3.46184,-16.25469 1.28619,-33.00413 -6.13973,-47.26748 -8.24452,-15.83568 -20.43721,-26.93248 -37.6888,-34.30132 -10.10904,-4.31797 -32.05456,-5.36843 -43.37876,-2.07639 -30.07526,8.74311 -50.0544,33.23742 -52.20913,64.00807 -2.48136,35.43501 23.49809,68.01896 58.95893,73.94749 9.51652,1.59103 11.68196,1.58848 22.37356,-0.0263 z"
       id="path62"
       inkscape:connector-curvature="0" />
    <path
       style="fill:#e3493a;stroke-width:1.33333325"
       d="M 31.333332,539.92226 C 23.456626,537.61722 12.910262,530.06048 8.4256414,523.50831 -0.63033819,510.27723 -0.07326045,527.83187 0.31511267,267.92943 L 0.66666664,32.666665 3.8032088,25.730939 C 7.7673741,16.965119 18.609314,6.6019133 27.337216,3.2360949 33.826287,0.73365696 40.187769,0.66666664 271.33332,0.66666664 h 237.33332 l 6.93572,3.13654216 c 8.76583,3.9641653 19.12903,14.8061052 22.49486,23.5340072 2.50245,6.489121 2.56942,12.85225 2.56942,244.130594 v 237.46783 l -4.66666,9.14864 c -3.35798,6.58307 -6.48594,10.52206 -11.15402,14.04604 -13.16108,9.93548 6.9919,9.21672 -254.66574,9.08274 -130.45529,-0.0668 -236.624925,-0.64058 -238.846888,-1.2908 z M 387.14086,437.88773 c 24.8263,-6.40096 44.33351,-26.03467 50.89107,-51.22108 2.92237,-11.22429 2.1061,-29.48284 -1.80899,-40.46453 -14.45933,-40.55791 -60.59206,-58.86801 -99.20694,-39.37529 -10.87432,5.48934 -24.69983,19.31485 -30.18917,30.18917 -20.76254,41.13037 1.36772,89.93163 45.83982,101.08519 9.41636,2.36163 24.85748,2.266 34.47421,-0.21346 z m -6.72961,-194.00259 c 27.71128,-4.18524 52.31041,-27.17512 58.08393,-54.28411 3.46184,-16.25469 1.28619,-33.00413 -6.13973,-47.26748 -8.24452,-15.83568 -20.43721,-26.93248 -37.6888,-34.30132 -10.10904,-4.31797 -32.05456,-5.36843 -43.37876,-2.07639 -30.07526,8.74311 -50.0544,33.23742 -52.20913,64.00807 -2.48136,35.43501 23.49809,68.01896 58.95893,73.94749 9.51652,1.59103 11.68196,1.58848 22.37356,-0.0263 z"
       id="path60"
       inkscape:connector-curvature="0" />
    <path
       style="fill:#2cc86e;stroke-width:1.33333325"
       d="M 31.333332,539.92226 C 23.456626,537.61722 12.910262,530.06048 8.4256414,523.50831 -0.63033819,510.27723 -0.07326045,527.83187 0.31511267,267.92943 L 0.66666664,32.666665 3.8032088,25.730939 C 7.7673741,16.965119 18.609314,6.6019133 27.337216,3.2360949 33.826287,0.73365696 40.187769,0.66666664 271.33332,0.66666664 h 237.33332 l 6.93572,3.13654216 c 8.76583,3.9641653 19.12903,14.8061052 22.49486,23.5340072 2.50245,6.489121 2.56942,12.85225 2.56942,244.130594 v 237.46783 l -4.66666,9.14864 c -3.35798,6.58307 -6.48594,10.52206 -11.15402,14.04604 -13.16108,9.93548 6.9919,9.21672 -254.66574,9.08274 -130.45529,-0.0668 -236.624925,-0.64058 -238.846888,-1.2908 z M 387.14086,437.88773 c 24.8263,-6.40096 44.33351,-26.03467 50.89107,-51.22108 2.92237,-11.22429 2.1061,-29.48284 -1.80899,-40.46453 -14.45933,-40.55791 -60.59206,-58.86801 -99.20694,-39.37529 -10.87432,5.48934 -24.69983,19.31485 -30.18917,30.18917 -20.76254,41.13037 1.36772,89.93163 45.83982,101.08519 9.41636,2.36163 24.85748,2.266 34.47421,-0.21346 z m -6.72961,-194.00259 c 27.71128,-4.18524 52.31041,-27.17512 58.08393,-54.28411 3.46184,-16.25469 1.28619,-33.00413 -6.13973,-47.26748 -8.24452,-15.83568 -20.43721,-26.93248 -37.6888,-34.30132 -10.10904,-4.31797 -32.05456,-5.36843 -43.37876,-2.07639 -30.07526,8.74311 -50.0544,33.23742 -52.20913,64.00807 -2.48136,35.43501 23.49809,68.01896 58.95893,73.94749 9.51652,1.59103 11.68196,1.58848 22.37356,-0.0263 z m -181.74459,-4.02079 c 20.0917,-8.36121 33.31045,-21.7156 41.43918,-41.86436 2.80663,-6.95681 3.22024,-10.08637 3.17199,-24 -0.0469,-13.52629 -0.5382,-17.23685 -3.17761,-24 -18.71399,-47.95196 -79.25387,-61.167336 -115.26072,-25.16049 -25.481364,25.48136 -27.531603,64.96055 -4.86286,93.63866 8.85948,11.20808 24.57623,20.76059 40.69002,24.73104 1.46667,0.36139 8.96667,0.4433 16.66667,0.182 10.78282,-0.36589 15.68518,-1.17636 21.33333,-3.52685 z"
       id="path58"
       inkscape:connector-curvature="0" />
    <path
       style="fill:#d54537;stroke-width:1.33333325"
       d="M 31.333332,539.92226 C 23.456626,537.61722 12.910262,530.06048 8.4256414,523.50831 -0.63033819,510.27723 -0.07326045,527.83187 0.31511267,267.92943 L 0.66666664,32.666665 3.8032088,25.730939 C 7.7673741,16.965119 18.609314,6.6019133 27.337216,3.2360949 33.826287,0.73365696 40.187769,0.66666664 271.33332,0.66666664 h 237.33332 l 6.93572,3.13654216 c 8.76583,3.9641653 19.12903,14.8061052 22.49486,23.5340072 2.50245,6.489121 2.56942,12.85225 2.56942,244.130594 v 237.46783 l -4.66666,9.14864 c -3.35798,6.58307 -6.48594,10.52206 -11.15402,14.04604 -13.16108,9.93548 6.9919,9.21672 -254.66574,9.08274 -130.45529,-0.0668 -236.624925,-0.64058 -238.846888,-1.2908 z M 185.64099,438.52831 c 24.08048,-3.73621 45.11864,-21.04925 54.53764,-44.88094 2.52895,-6.39867 3.03328,-10.25997 3.08859,-23.64739 0.0596,-14.42381 -0.29703,-16.91944 -3.62011,-25.33333 -8.21695,-20.805 -24.97444,-36.22005 -46.22245,-42.51958 -10.41673,-3.08831 -29.55995,-2.84479 -40.06016,0.50962 -18.51179,5.9138 -33.61572,19.09092 -42.09905,36.7285 -21.950585,45.63715 10.12483,98.33515 61.14581,100.45892 2.05952,0.0857 8.01291,-0.50638 13.22973,-1.3158 z m 201.49987,-0.64058 c 24.8263,-6.40096 44.33351,-26.03467 50.89107,-51.22108 2.92237,-11.22429 2.1061,-29.48284 -1.80899,-40.46453 -14.45933,-40.55791 -60.59206,-58.86801 -99.20694,-39.37529 -10.87432,5.48934 -24.69983,19.31485 -30.18917,30.18917 -20.76254,41.13037 1.36772,89.93163 45.83982,101.08519 9.41636,2.36163 24.85748,2.266 34.47421,-0.21346 z m -6.72961,-194.00259 c 27.71128,-4.18524 52.31041,-27.17512 58.08393,-54.28411 3.46184,-16.25469 1.28619,-33.00413 -6.13973,-47.26748 -8.24452,-15.83568 -20.43721,-26.93248 -37.6888,-34.30132 -10.10904,-4.31797 -32.05456,-5.36843 -43.37876,-2.07639 -30.07526,8.74311 -50.0544,33.23742 -52.20913,64.00807 -2.48136,35.43501 23.49809,68.01896 58.95893,73.94749 9.51652,1.59103 11.68196,1.58848 22.37356,-0.0263 z m -181.74459,-4.02079 c 20.0917,-8.36121 33.31045,-21.7156 41.43918,-41.86436 2.80663,-6.95681 3.22024,-10.08637 3.17199,-24 -0.0469,-13.52629 -0.5382,-17.23685 -3.17761,-24 -18.71399,-47.95196 -79.25387,-61.167336 -115.26072,-25.16049 -25.481364,25.48136 -27.531603,64.96055 -4.86286,93.63866 8.85948,11.20808 24.57623,20.76059 40.69002,24.73104 1.46667,0.36139 8.96667,0.4433 16.66667,0.182 10.78282,-0.36589 15.68518,-1.17636 21.33333,-3.52685 z"
       id="path56"
       inkscape:connector-curvature="0" />
    <path
       style="fill:#b08f09;stroke-width:1.33333325"
       d="M 31.333332,539.92226 C 23.456626,537.61722 12.910262,530.06048 8.4256414,523.50831 -0.63033819,510.27723 -0.07326045,527.83187 0.31511267,267.92943 L 0.66666664,32.666665 3.8032088,25.730939 C 7.7673741,16.965119 18.609314,6.6019133 27.337216,3.2360949 33.826287,0.73365696 40.187769,0.66666664 271.33332,0.66666664 h 237.33332 l 6.93572,3.13654216 c 8.76583,3.9641653 19.12903,14.8061052 22.49486,23.5340072 2.50245,6.489121 2.56942,12.85225 2.56942,244.130594 v 237.46783 l -4.66666,9.14864 c -3.35798,6.58307 -6.48594,10.52206 -11.15402,14.04604 -13.16108,9.93548 6.9919,9.21672 -254.66574,9.08274 -130.45529,-0.0668 -236.624925,-0.64058 -238.846888,-1.2908 z M 185.64099,438.52831 c 24.08048,-3.73621 45.11864,-21.04925 54.53764,-44.88094 2.52895,-6.39867 3.03328,-10.25997 3.08859,-23.64739 0.0596,-14.42381 -0.29703,-16.91944 -3.62011,-25.33333 -8.21695,-20.805 -24.97444,-36.22005 -46.22245,-42.51958 -10.41673,-3.08831 -29.55995,-2.84479 -40.06016,0.50962 -18.51179,5.9138 -33.61572,19.09092 -42.09905,36.7285 -21.950585,45.63715 10.12483,98.33515 61.14581,100.45892 2.05952,0.0857 8.01291,-0.50638 13.22973,-1.3158 z m 201.49987,-0.64058 c 24.8263,-6.40096 44.33351,-26.03467 50.89107,-51.22108 2.92237,-11.22429 2.1061,-29.48284 -1.80899,-40.46453 -14.45933,-40.55791 -60.59206,-58.86801 -99.20694,-39.37529 -10.87432,5.48934 -24.69983,19.31485 -30.18917,30.18917 -20.76254,41.13037 1.36772,89.93163 45.83982,101.08519 9.41636,2.36163 24.85748,2.266 34.47421,-0.21346 z m -6.72961,-194.00259 c 27.71128,-4.18524 52.31041,-27.17512 58.08393,-54.28411 3.46184,-16.25469 1.28619,-33.00413 -6.13973,-47.26748 -8.24452,-15.83568 -20.43721,-26.93248 -37.6888,-34.30132 -10.10904,-4.31797 -32.05456,-5.36843 -43.37876,-2.07639 -30.07526,8.74311 -50.0544,33.23742 -52.20913,64.00807 -2.48136,35.43501 23.49809,68.01896 58.95893,73.94749 9.51652,1.59103 11.68196,1.58848 22.37356,-0.0263 z m -186.98659,-2.01232 c 23.43654,-6.88395 41.56421,-25.01162 48.44816,-48.44816 3.33004,-11.33717 2.81345,-30.65407 -1.11766,-41.79285 -17.15742,-48.6156 -77.40401,-63.485278 -115.22265,-28.43852 -12.0134,11.13288 -20.06888,28.52573 -21.18946,45.75086 -2.13247,32.77948 16.38929,60.90596 47.28876,71.81101 11.13878,3.93111 30.45568,4.4477 41.79285,1.11766 z"
       id="path54"
       inkscape:connector-curvature="0" />
    <path
       style="fill:#29b965;stroke-width:1.33333325"
       d="M 31.333332,539.92226 C 23.456626,537.61722 12.910262,530.06048 8.4256414,523.50831 -0.63033819,510.27723 -0.07326045,527.83187 0.31511267,267.92943 L 0.66666664,32.666665 3.8032088,25.730939 C 7.7673741,16.965119 18.609314,6.6019133 27.337216,3.2360949 33.826287,0.73365696 40.187769,0.66666664 271.33332,0.66666664 h 237.33332 l 6.93572,3.13654216 c 8.76583,3.9641653 19.12903,14.8061052 22.49486,23.5340072 2.50245,6.489121 2.56942,12.85225 2.56942,244.130594 v 237.46783 l -4.66666,9.14864 c -3.35798,6.58307 -6.48594,10.52206 -11.15402,14.04604 -13.16108,9.93548 6.9919,9.21672 -254.66574,9.08274 -130.45529,-0.0668 -236.624925,-0.64058 -238.846888,-1.2908 z M 185.64099,438.52831 c 24.08048,-3.73621 45.11864,-21.04925 54.53764,-44.88094 2.52895,-6.39867 3.03328,-10.25997 3.08859,-23.64739 0.0596,-14.42381 -0.29703,-16.91944 -3.62011,-25.33333 -8.21695,-20.805 -24.97444,-36.22005 -46.22245,-42.51958 -10.41673,-3.08831 -29.55995,-2.84479 -40.06016,0.50962 -18.51179,5.9138 -33.61572,19.09092 -42.09905,36.7285 -21.950585,45.63715 10.12483,98.33515 61.14581,100.45892 2.05952,0.0857 8.01291,-0.50638 13.22973,-1.3158 z m 201.49987,-0.64058 c 24.8263,-6.40096 44.33351,-26.03467 50.89107,-51.22108 2.92237,-11.22429 2.1061,-29.48284 -1.80899,-40.46453 -14.45933,-40.55791 -60.59206,-58.86801 -99.20694,-39.37529 -10.87432,5.48934 -24.69983,19.31485 -30.18917,30.18917 -20.76254,41.13037 1.36772,89.93163 45.83982,101.08519 9.41636,2.36163 24.85748,2.266 34.47421,-0.21346 z m 6.69568,-197.10447 c 21.87723,-8.25075 37.60072,-25.34432 44.20271,-48.05435 3.12285,-10.74222 2.19492,-33.00409 -1.80386,-43.2759 -6.63526,-17.04427 -19.17847,-30.69917 -35.56874,-38.72113 -35.55016,-17.39946 -76.77396,-3.46714 -94.48364,31.93245 -6.06041,12.11404 -8.01162,21.92073 -7.16332,36.00233 1.86246,30.91564 23.55852,56.96553 53.84023,64.64454 11.57414,2.93504 29.40862,1.83479 40.97662,-2.52794 z m -200.41188,1.08956 c 23.43654,-6.88395 41.56421,-25.01162 48.44816,-48.44816 3.33004,-11.33717 2.81345,-30.65407 -1.11766,-41.79285 -17.15742,-48.6156 -77.40401,-63.485278 -115.22265,-28.43852 -12.0134,11.13288 -20.06888,28.52573 -21.18946,45.75086 -2.13247,32.77948 16.38929,60.90596 47.28876,71.81101 11.13878,3.93111 30.45568,4.4477 41.79285,1.11766 z"
       id="path52"
       inkscape:connector-curvature="0" />
    <path
       style="fill:#c23e32;stroke-width:1.33333325"
       d="M 31.333332,539.92226 C 23.456626,537.61722 12.910262,530.06048 8.4256414,523.50831 -0.63033819,510.27723 -0.07326045,527.83187 0.31511267,267.92943 L 0.66666664,32.666665 3.8032088,25.730939 C 7.7673741,16.965119 18.609314,6.6019133 27.337216,3.2360949 33.826287,0.73365696 40.187769,0.66666664 271.33332,0.66666664 h 237.33332 l 6.93572,3.13654216 c 8.76583,3.9641653 19.12903,14.8061052 22.49486,23.5340072 2.50245,6.489121 2.56942,12.85225 2.56942,244.130594 v 237.46783 l -4.66666,9.14864 c -3.35798,6.58307 -6.48594,10.52206 -11.15402,14.04604 -13.16108,9.93548 6.9919,9.21672 -254.66574,9.08274 -130.45529,-0.0668 -236.624925,-0.64058 -238.846888,-1.2908 z M 190.06479,438.17446 c 16.03209,-3.44276 34.27657,-16.16172 43.25665,-30.15596 7.48424,-11.66318 10.61855,-22.88734 10.65043,-38.13994 0.0156,-7.4909 -0.76157,-16.06046 -1.75347,-19.33334 -5.23173,-17.26271 -18.2675,-33.94022 -33.08153,-42.3233 -8.91479,-5.04476 -25.50744,-9.56317 -35.01682,-9.53556 -25.26112,0.0733 -51.45271,16.41452 -62.59836,39.05569 -5.81951,11.82169 -7.44713,18.69903 -7.4891,31.64447 -0.0625,19.27974 6.95587,36.26818 20.63428,49.9466 17.2362,17.23621 40.99594,24.08145 65.39792,18.84134 z m 197.07607,-0.28673 c 24.8263,-6.40096 44.33351,-26.03467 50.89107,-51.22108 2.92237,-11.22429 2.1061,-29.48284 -1.80899,-40.46453 -14.45933,-40.55791 -60.59206,-58.86801 -99.20694,-39.37529 -10.87432,5.48934 -24.69983,19.31485 -30.18917,30.18917 -20.76254,41.13037 1.36772,89.93163 45.83982,101.08519 9.41636,2.36163 24.85748,2.266 34.47421,-0.21346 z m 6.69568,-197.10447 c 21.87723,-8.25075 37.60072,-25.34432 44.20271,-48.05435 3.12285,-10.74222 2.19492,-33.00409 -1.80386,-43.2759 -6.63526,-17.04427 -19.17847,-30.69917 -35.56874,-38.72113 -35.55016,-17.39946 -76.77396,-3.46714 -94.48364,31.93245 -6.06041,12.11404 -8.01162,21.92073 -7.16332,36.00233 1.86246,30.91564 23.55852,56.96553 53.84023,64.64454 11.57414,2.93504 29.40862,1.83479 40.97662,-2.52794 z m -200.41188,1.08956 c 23.43654,-6.88395 41.56421,-25.01162 48.44816,-48.44816 3.33004,-11.33717 2.81345,-30.65407 -1.11766,-41.79285 -17.15742,-48.6156 -77.40401,-63.485278 -115.22265,-28.43852 -12.0134,11.13288 -20.06888,28.52573 -21.18946,45.75086 -2.13247,32.77948 16.38929,60.90596 47.28876,71.81101 11.13878,3.93111 30.45568,4.4477 41.79285,1.11766 z"
       id="path50"
       inkscape:connector-curvature="0" />
    <path
       style="fill:#246c9c;stroke-width:1.33333325"
       d="M 31.333332,539.92226 C 23.456626,537.61722 12.910262,530.06048 8.4256414,523.50831 -0.63033819,510.27723 -0.07326045,527.83187 0.31511267,267.92943 L 0.66666664,32.666665 3.8032088,25.730939 C 7.7673741,16.965119 18.609314,6.6019133 27.337216,3.2360949 33.826287,0.73365696 40.187769,0.66666664 271.33332,0.66666664 h 237.33332 l 6.93572,3.13654216 c 8.76583,3.9641653 19.12903,14.8061052 22.49486,23.5340072 2.50245,6.489121 2.56942,12.85225 2.56942,244.130594 v 237.46783 l -4.66666,9.14864 c -3.35798,6.58307 -6.48594,10.52206 -11.15402,14.04604 -13.16108,9.93548 6.9919,9.21672 -254.66574,9.08274 -130.45529,-0.0668 -236.624925,-0.64058 -238.846888,-1.2908 z M 190.06479,438.17446 c 16.03209,-3.44276 34.27657,-16.16172 43.25665,-30.15596 7.48424,-11.66318 10.61855,-22.88734 10.65043,-38.13994 0.0156,-7.4909 -0.76157,-16.06046 -1.75347,-19.33334 -5.23173,-17.26271 -18.2675,-33.94022 -33.08153,-42.3233 -8.91479,-5.04476 -25.50744,-9.56317 -35.01682,-9.53556 -25.26112,0.0733 -51.45271,16.41452 -62.59836,39.05569 -5.81951,11.82169 -7.44713,18.69903 -7.4891,31.64447 -0.0625,19.27974 6.95587,36.26818 20.63428,49.9466 17.2362,17.23621 40.99594,24.08145 65.39792,18.84134 z m 197.07607,-0.28673 c 24.8263,-6.40096 44.33351,-26.03467 50.89107,-51.22108 2.92237,-11.22429 2.1061,-29.48284 -1.80899,-40.46453 -14.45933,-40.55791 -60.59206,-58.86801 -99.20694,-39.37529 -10.87432,5.48934 -24.69983,19.31485 -30.18917,30.18917 -20.76254,41.13037 1.36772,89.93163 45.83982,101.08519 9.41636,2.36163 24.85748,2.266 34.47421,-0.21346 z M 196.56575,241.14274 c 19.93589,-6.71592 35.78631,-21.73978 43.45092,-41.18508 15.10639,-38.3252 -6.62593,-82.09137 -46.59201,-93.83049 -8.23671,-2.41935 -26.98772,-2.77714 -36.05425,-0.68797 -23.90627,5.50866 -46.42255,28.02494 -51.93121,51.93121 -2.08917,9.06653 -1.73138,27.81754 0.68797,36.05425 5.7282,19.50177 18.9119,35.12984 37.03548,43.90216 5.9933,2.90092 14.1835,5.85349 18.20046,6.56126 9.89008,1.7426 25.49228,0.52583 35.20264,-2.74534 z m 197.27079,-0.35948 c 21.87723,-8.25075 37.60072,-25.34432 44.20271,-48.05435 3.12285,-10.74222 2.19492,-33.00409 -1.80386,-43.2759 -6.63526,-17.04427 -19.17847,-30.69917 -35.56874,-38.72113 -35.55016,-17.39946 -76.77396,-3.46714 -94.48364,31.93245 -6.06041,12.11404 -8.01162,21.92073 -7.16332,36.00233 1.86246,30.91564 23.55852,56.96553 53.84023,64.64454 11.57414,2.93504 29.40862,1.83479 40.97662,-2.52794 z"
       id="path48"
       inkscape:connector-curvature="0" />
    <path
       style="fill:#24a75b;stroke-width:1.33333325"
       d="M 31.333332,539.92226 C 23.456626,537.61722 12.910262,530.06048 8.4256414,523.50831 -0.63033819,510.27723 -0.07326045,527.83187 0.31511267,267.92943 L 0.66666664,32.666665 3.8032088,25.730939 C 7.7673741,16.965119 18.609314,6.6019133 27.337216,3.2360949 33.826287,0.73365696 40.187769,0.66666664 271.33332,0.66666664 h 237.33332 l 6.93572,3.13654216 c 8.76583,3.9641653 19.12903,14.8061052 22.49486,23.5340072 2.50245,6.489121 2.56942,12.85225 2.56942,244.130594 v 237.46783 l -4.66666,9.14864 c -3.35798,6.58307 -6.48594,10.52206 -11.15402,14.04604 -13.16108,9.93548 6.9919,9.21672 -254.66574,9.08274 -130.45529,-0.0668 -236.624925,-0.64058 -238.846888,-1.2908 z M 390.66665,437.30133 c 21.1332,-6.15428 39.95956,-24.87152 46.80982,-46.53851 3.20758,-10.14538 3.81651,-29.21262 1.23511,-38.67414 -5.05348,-18.52227 -19.29513,-36.61977 -35.48686,-45.09471 -47.97444,-25.11037 -104.55807,8.75872 -104.55807,62.58501 0,48.18435 45.09732,81.38105 92,67.72235 z m -200.60186,0.87313 c 16.03209,-3.44276 34.27657,-16.16172 43.25665,-30.15596 7.48424,-11.66318 10.61855,-22.88734 10.65043,-38.13994 0.0156,-7.4909 -0.76157,-16.06046 -1.75347,-19.33334 -5.23173,-17.26271 -18.2675,-33.94022 -33.08153,-42.3233 -8.91479,-5.04476 -25.50744,-9.56317 -35.01682,-9.53556 -25.26112,0.0733 -51.45271,16.41452 -62.59836,39.05569 -5.81951,11.82169 -7.44713,18.69903 -7.4891,31.64447 -0.0625,19.27974 6.95587,36.26818 20.63428,49.9466 17.2362,17.23621 40.99594,24.08145 65.39792,18.84134 z m 6.50096,-197.03172 c 19.93589,-6.71592 35.78631,-21.73978 43.45092,-41.18508 15.10639,-38.3252 -6.62593,-82.09137 -46.59201,-93.83049 -8.23671,-2.41935 -26.98772,-2.77714 -36.05425,-0.68797 -23.90627,5.50866 -46.42255,28.02494 -51.93121,51.93121 -2.08917,9.06653 -1.73138,27.81754 0.68797,36.05425 5.7282,19.50177 18.9119,35.12984 37.03548,43.90216 5.9933,2.90092 14.1835,5.85349 18.20046,6.56126 9.89008,1.7426 25.49228,0.52583 35.20264,-2.74534 z m 197.27079,-0.35948 c 21.87723,-8.25075 37.60072,-25.34432 44.20271,-48.05435 3.12285,-10.74222 2.19492,-33.00409 -1.80386,-43.2759 -6.63526,-17.04427 -19.17847,-30.69917 -35.56874,-38.72113 -35.55016,-17.39946 -76.77396,-3.46714 -94.48364,31.93245 -6.06041,12.11404 -8.01162,21.92073 -7.16332,36.00233 1.86246,30.91564 23.55852,56.96553 53.84023,64.64454 11.57414,2.93504 29.40862,1.83479 40.97662,-2.52794 z"
       id="path46"
       inkscape:connector-curvature="0" />
    <path
       style="fill:#5f5f5f;stroke-width:1.33333325"
       d="M 31.333332,539.92226 C 23.456626,537.61722 12.910262,530.06048 8.4256414,523.50831 -0.63033819,510.27723 -0.07326045,527.83187 0.31511267,267.92943 L 0.66666664,32.666665 3.8032088,25.730939 C 7.7673741,16.965119 18.609314,6.6019133 27.337216,3.2360949 33.826287,0.73365696 40.187769,0.66666664 271.33332,0.66666664 h 237.33332 l 6.93572,3.13654216 c 8.76583,3.9641653 19.12903,14.8061052 22.49486,23.5340072 2.50245,6.489121 2.56942,12.85225 2.56942,244.130594 v 237.46783 l -4.66666,9.14864 c -3.35798,6.58307 -6.48594,10.52206 -11.15402,14.04604 -13.16108,9.93548 6.9919,9.21672 -254.66574,9.08274 -130.45529,-0.0668 -236.624925,-0.64058 -238.846888,-1.2908 z M 390.66665,437.30133 c 21.1332,-6.15428 39.95956,-24.87152 46.80982,-46.53851 3.20758,-10.14538 3.81651,-29.21262 1.23511,-38.67414 -5.05348,-18.52227 -19.29513,-36.61977 -35.48686,-45.09471 -47.97444,-25.11037 -104.55807,8.75872 -104.55807,62.58501 0,48.18435 45.09732,81.38105 92,67.72235 z m -197.24199,0.55157 c 29.22838,-8.66552 49.43712,-33.70537 51.4658,-63.76928 2.73758,-40.56934 -30.0185,-75.41697 -70.89047,-75.41697 -38.83652,0 -70.16165,31.13772 -70.42131,70 -0.13989,20.93843 7.19514,38.24476 22.09908,52.14076 9.5817,8.93369 18.69059,14.27566 29.12841,17.08254 9.88084,2.65711 29.59501,2.6382 38.61849,-0.0371 z m 3.14109,-196.71016 c 19.93589,-6.71592 35.78631,-21.73978 43.45092,-41.18508 15.10639,-38.3252 -6.62593,-82.09137 -46.59201,-93.83049 -8.23671,-2.41935 -26.98772,-2.77714 -36.05425,-0.68797 -23.90627,5.50866 -46.42255,28.02494 -51.93121,51.93121 -2.08917,9.06653 -1.73138,27.81754 0.68797,36.05425 5.7282,19.50177 18.9119,35.12984 37.03548,43.90216 5.9933,2.90092 14.1835,5.85349 18.20046,6.56126 9.89008,1.7426 25.49228,0.52583 35.20264,-2.74534 z m 197.27079,-0.35948 c 21.87723,-8.25075 37.60072,-25.34432 44.20271,-48.05435 3.12285,-10.74222 2.19492,-33.00409 -1.80386,-43.2759 -6.63526,-17.04427 -19.17847,-30.69917 -35.56874,-38.72113 -35.55016,-17.39946 -76.77396,-3.46714 -94.48364,31.93245 -6.06041,12.11404 -8.01162,21.92073 -7.16332,36.00233 1.86246,30.91564 23.55852,56.96553 53.84023,64.64454 11.57414,2.93504 29.40862,1.83479 40.97662,-2.52794 z"
       id="path44"
       inkscape:connector-curvature="0" />
    <path
       style="fill:#b1392d;stroke-width:1.33333325"
       d="M 31.93408,539.52663 C 21.164826,536.60563 9.970034,527.5889 4.8714201,517.72926 -0.04730689,508.2175 -0.13402053,503.47264 0.27098987,265.99999 0.72335629,0.76074683 -0.62900928,27.104853 13.247697,13.213496 27.04935,-0.60272843 1.0056105,0.66666664 270.66665,0.66666664 c 224.16012,0 235.66379,0.11524439 242.29365,2.42730886 9.24284,3.2233056 19.28737,12.4284415 23.97253,21.9692065 l 3.73381,7.603483 V 270.66665 508.66664 l -2.88118,6.23423 c -4.08076,8.82983 -12.82068,17.76199 -21.5968,22.07181 l -7.52202,3.69396 -235.33332,0.25264 C 90.209935,541.11587 36.654242,540.80691 31.93408,539.52663 Z m 358.73257,-102.2253 c 21.1332,-6.15428 39.95956,-24.87152 46.80982,-46.53851 3.20758,-10.14538 3.81651,-29.21262 1.23511,-38.67414 -5.05348,-18.52227 -19.29513,-36.61977 -35.48686,-45.09471 -47.97444,-25.11037 -104.55807,8.75872 -104.55807,62.58501 0,48.18435 45.09732,81.38105 92,67.72235 z m -197.24199,0.55157 c 29.22838,-8.66552 49.43712,-33.70537 51.4658,-63.76928 2.73758,-40.56934 -30.0185,-75.41697 -70.89047,-75.41697 -38.83652,0 -70.16165,31.13772 -70.42131,70 -0.13989,20.93843 7.19514,38.24476 22.09908,52.14076 9.5817,8.93369 18.69059,14.27566 29.12841,17.08254 9.88084,2.65711 29.59501,2.6382 38.61849,-0.0371 z m 3.14109,-196.71016 c 19.93589,-6.71592 35.78631,-21.73978 43.45092,-41.18508 15.10639,-38.3252 -6.62593,-82.09137 -46.59201,-93.83049 -8.23671,-2.41935 -26.98772,-2.77714 -36.05425,-0.68797 -23.90627,5.50866 -46.42255,28.02494 -51.93121,51.93121 -2.08917,9.06653 -1.73138,27.81754 0.68797,36.05425 5.7282,19.50177 18.9119,35.12984 37.03548,43.90216 5.9933,2.90092 14.1835,5.85349 18.20046,6.56126 9.89008,1.7426 25.49228,0.52583 35.20264,-2.74534 z m 197.27079,-0.35948 c 21.87723,-8.25075 37.60072,-25.34432 44.20271,-48.05435 3.12285,-10.74222 2.19492,-33.00409 -1.80386,-43.2759 -6.63526,-17.04427 -19.17847,-30.69917 -35.56874,-38.72113 -35.55016,-17.39946 -76.77396,-3.46714 -94.48364,31.93245 -6.06041,12.11404 -8.01162,21.92073 -7.16332,36.00233 1.86246,30.91564 23.55852,56.96553 53.84023,64.64454 11.57414,2.93504 29.40862,1.83479 40.97662,-2.52794 z"
       id="path42"
       inkscape:connector-curvature="0" />
    <path
       style="fill:#8e7307;stroke-width:1.33333325"
       d="M 31.93408,539.52663 C 21.164826,536.60563 9.970034,527.5889 4.8714201,517.72926 -0.04730689,508.2175 -0.13402053,503.47264 0.27098987,265.99999 0.72335629,0.76074683 -0.62900928,27.104853 13.247697,13.213496 27.04935,-0.60272843 1.0056105,0.66666664 270.66665,0.66666664 c 224.16012,0 235.66379,0.11524439 242.29365,2.42730886 9.24284,3.2233056 19.28737,12.4284415 23.97253,21.9692065 l 3.73381,7.603483 V 270.66665 508.66664 l -2.88118,6.23423 c -4.08076,8.82983 -12.82068,17.76199 -21.5968,22.07181 l -7.52202,3.69396 -235.33332,0.25264 C 90.209935,541.11587 36.654242,540.80691 31.93408,539.52663 Z m 358.73257,-102.2253 c 21.1332,-6.15428 39.95956,-24.87152 46.80982,-46.53851 3.20758,-10.14538 3.81651,-29.21262 1.23511,-38.67414 -5.05348,-18.52227 -19.29513,-36.61977 -35.48686,-45.09471 -47.97444,-25.11037 -104.55807,8.75872 -104.55807,62.58501 0,48.18435 45.09732,81.38105 92,67.72235 z m -197.24199,0.55157 c 29.22838,-8.66552 49.43712,-33.70537 51.4658,-63.76928 2.73758,-40.56934 -30.0185,-75.41697 -70.89047,-75.41697 -38.83652,0 -70.16165,31.13772 -70.42131,70 -0.13989,20.93843 7.19514,38.24476 22.09908,52.14076 9.5817,8.93369 18.69059,14.27566 29.12841,17.08254 9.88084,2.65711 29.59501,2.6382 38.61849,-0.0371 z m -6.00288,-193.95384 c 12.94257,-2.34635 26.68384,-9.74744 36.70684,-19.77044 31.12473,-31.12473 26.96569,-82.35052 -8.7158,-107.35029 -10.748,-7.53044 -20.03651,-11.25915 -31.74451,-12.74328 -46.59642,-5.906673 -85.539933,33.03684 -79.63326,79.63326 3.37169,26.59856 23.07851,50.14563 48.63161,58.10844 12.06408,3.75937 22.28284,4.38339 34.75512,2.12231 z m 206.41476,-3.1158 c 21.87723,-8.25075 37.60072,-25.34432 44.20271,-48.05435 3.12285,-10.74222 2.19492,-33.00409 -1.80386,-43.2759 -6.63526,-17.04427 -19.17847,-30.69917 -35.56874,-38.72113 -35.55016,-17.39946 -76.77396,-3.46714 -94.48364,31.93245 -6.06041,12.11404 -8.01162,21.92073 -7.16332,36.00233 1.86246,30.91564 23.55852,56.96553 53.84023,64.64454 11.57414,2.93504 29.40862,1.83479 40.97662,-2.52794 z"
       id="path40"
       inkscape:connector-curvature="0" />
    <path
       style="fill:#912f24;stroke-width:1.33333325"
       d="M 31.93408,539.52663 C 21.164826,536.60563 9.970034,527.5889 4.8714201,517.72926 -0.04730689,508.2175 -0.13402053,503.47264 0.27098987,265.99999 0.72335629,0.76074683 -0.62900928,27.104853 13.247697,13.213496 27.04935,-0.60272843 1.0056105,0.66666664 270.66665,0.66666664 c 224.16012,0 235.66379,0.11524439 242.29365,2.42730886 9.24284,3.2233056 19.28737,12.4284415 23.97253,21.9692065 l 3.73381,7.603483 V 270.66665 508.66664 l -2.88118,6.23423 c -4.08076,8.82983 -12.82068,17.76199 -21.5968,22.07181 l -7.52202,3.69396 -235.33332,0.25264 C 90.209935,541.11587 36.654242,540.80691 31.93408,539.52663 Z m 358.73257,-102.2253 c 21.1332,-6.15428 39.95956,-24.87152 46.80982,-46.53851 3.20758,-10.14538 3.81651,-29.21262 1.23511,-38.67414 -5.05348,-18.52227 -19.29513,-36.61977 -35.48686,-45.09471 -47.97444,-25.11037 -104.55807,8.75872 -104.55807,62.58501 0,48.18435 45.09732,81.38105 92,67.72235 z m -197.24199,0.55157 c 29.22838,-8.66552 49.43712,-33.70537 51.4658,-63.76928 2.73758,-40.56934 -30.0185,-75.41697 -70.89047,-75.41697 -38.83652,0 -70.16165,31.13772 -70.42131,70 -0.13989,20.93843 7.19514,38.24476 22.09908,52.14076 9.5817,8.93369 18.69059,14.27566 29.12841,17.08254 9.88084,2.65711 29.59501,2.6382 38.61849,-0.0371 z m -6.00288,-193.95384 c 12.94257,-2.34635 26.68384,-9.74744 36.70684,-19.77044 31.12473,-31.12473 26.96569,-82.35052 -8.7158,-107.35029 -10.748,-7.53044 -20.03651,-11.25915 -31.74451,-12.74328 -46.59642,-5.906673 -85.539933,33.03684 -79.63326,79.63326 3.37169,26.59856 23.07851,50.14563 48.63161,58.10844 12.06408,3.75937 22.28284,4.38339 34.75512,2.12231 z m 199.71908,-0.67799 c 35.47368,-9.14616 58.55911,-44.01687 52.88803,-79.88774 -5.20002,-32.89128 -33.04889,-58.08049 -66.64871,-60.2835 -30.54541,-2.00274 -60.28613,17.70205 -70.94131,47.00234 -4.02288,11.06237 -4.90411,32.01814 -1.79878,42.77508 7.20946,24.97359 27.36532,44.68815 51.72276,50.59026 9.80503,2.37588 25.13708,2.28927 34.77801,-0.19644 z"
       id="path38"
       inkscape:connector-curvature="0" />
    <path
       style="fill:#195862;stroke-width:1.33333325"
       d="M 31.93408,539.52663 C 21.164826,536.60563 9.970034,527.5889 4.8714201,517.72926 -0.04730689,508.2175 -0.13402053,503.47264 0.27098987,265.99999 0.72335629,0.76074683 -0.62900928,27.104853 13.247697,13.213496 27.04935,-0.60272843 1.0056105,0.66666664 270.66665,0.66666664 c 224.16012,0 235.66379,0.11524439 242.29365,2.42730886 9.24284,3.2233056 19.28737,12.4284415 23.97253,21.9692065 l 3.73381,7.603483 V 270.66665 508.66664 l -2.88118,6.23423 c -4.08076,8.82983 -12.82068,17.76199 -21.5968,22.07181 l -7.52202,3.69396 -235.33332,0.25264 C 90.209935,541.11587 36.654242,540.80691 31.93408,539.52663 Z m 358.73257,-102.2253 c 21.1332,-6.15428 39.95956,-24.87152 46.80982,-46.53851 3.20758,-10.14538 3.81651,-29.21262 1.23511,-38.67414 -5.05348,-18.52227 -19.29513,-36.61977 -35.48686,-45.09471 -47.97444,-25.11037 -104.55807,8.75872 -104.55807,62.58501 0,48.18435 45.09732,81.38105 92,67.72235 z m -197.24199,0.55157 c 29.22838,-8.66552 49.43712,-33.70537 51.4658,-63.76928 2.73758,-40.56934 -30.0185,-75.41697 -70.89047,-75.41697 -38.83652,0 -70.16165,31.13772 -70.42131,70 -0.13989,20.93843 7.19514,38.24476 22.09908,52.14076 9.5817,8.93369 18.69059,14.27566 29.12841,17.08254 9.88084,2.65711 29.59501,2.6382 38.61849,-0.0371 z m -2.16107,-194.55743 c 31.23976,-8.13693 54.12101,-37.16736 54.05003,-68.57561 -0.0703,-31.10695 -19.49916,-58.14735 -49.05971,-68.27962 -12.47074,-4.27451 -31.92832,-4.24846 -44.25392,0.0592 -21.91999,7.66088 -37.80723,23.55027 -45.49432,45.5005 -4.31456,12.32007 -4.34332,31.77332 -0.0654,44.25392 12.1214,35.36377 49.68259,56.19456 84.82335,47.04156 z m 195.87727,-0.0744 c 35.47368,-9.14616 58.55911,-44.01687 52.88803,-79.88774 -5.20002,-32.89128 -33.04889,-58.08049 -66.64871,-60.2835 -30.54541,-2.00274 -60.28613,17.70205 -70.94131,47.00234 -4.02288,11.06237 -4.90411,32.01814 -1.79878,42.77508 7.20946,24.97359 27.36532,44.68815 51.72276,50.59026 9.80503,2.37588 25.13708,2.28927 34.77801,-0.19644 z"
       id="path36"
       inkscape:connector-curvature="0" />
    <path
       style="fill:#665205;stroke-width:1.33333325"
       d="M 31.93408,539.52663 C 21.164826,536.60563 9.970034,527.5889 4.8714201,517.72926 -0.04730689,508.2175 -0.13402053,503.47264 0.27098987,265.99999 0.72335629,0.76074683 -0.62900928,27.104853 13.247697,13.213496 27.04935,-0.60272843 1.0056105,0.66666664 270.66665,0.66666664 c 224.16012,0 235.66379,0.11524439 242.29365,2.42730886 9.24284,3.2233056 19.28737,12.4284415 23.97253,21.9692065 l 3.73381,7.603483 V 270.66665 508.66664 l -2.88118,6.23423 c -4.08076,8.82983 -12.82068,17.76199 -21.5968,22.07181 l -7.52202,3.69396 -235.33332,0.25264 C 90.209935,541.11587 36.654242,540.80691 31.93408,539.52663 Z M 384.34301,439.37777 c 41.06701,-8.70248 66.46433,-52.88153 52.96166,-92.12769 -7.3975,-21.50123 -23.53873,-37.78689 -44.9365,-45.3386 -10.6224,-3.74885 -29.91071,-4.40007 -41.21033,-1.39132 -23.42037,6.23611 -44.40157,27.21731 -50.63768,50.63768 -2.82995,10.6281 -2.38637,29.99616 0.91343,39.88421 7.29394,21.85676 24.5458,39.29416 45.64581,46.13672 14.12009,4.57902 23.43756,5.12888 37.26361,2.199 z M 193.42466,437.8529 c 29.22838,-8.66552 49.43712,-33.70537 51.4658,-63.76928 2.73758,-40.56934 -30.0185,-75.41697 -70.89047,-75.41697 -38.83652,0 -70.16165,31.13772 -70.42131,70 -0.13989,20.93843 7.19514,38.24476 22.09908,52.14076 9.5817,8.93369 18.69059,14.27566 29.12841,17.08254 9.88084,2.65711 29.59501,2.6382 38.61849,-0.0371 z m -2.16107,-194.55743 c 31.23976,-8.13693 54.12101,-37.16736 54.05003,-68.57561 -0.0703,-31.10695 -19.49916,-58.14735 -49.05971,-68.27962 -12.47074,-4.27451 -31.92832,-4.24846 -44.25392,0.0592 -21.91999,7.66088 -37.80723,23.55027 -45.49432,45.5005 -4.31456,12.32007 -4.34332,31.77332 -0.0654,44.25392 12.1214,35.36377 49.68259,56.19456 84.82335,47.04156 z m 195.87727,-0.0744 c 35.47368,-9.14616 58.55911,-44.01687 52.88803,-79.88774 -5.20002,-32.89128 -33.04889,-58.08049 -66.64871,-60.2835 -30.54541,-2.00274 -60.28613,17.70205 -70.94131,47.00234 -4.02288,11.06237 -4.90411,32.01814 -1.79878,42.77508 7.20946,24.97359 27.36532,44.68815 51.72276,50.59026 9.80503,2.37588 25.13708,2.28927 34.77801,-0.19644 z"
       id="path34"
       inkscape:connector-curvature="0" />
    <path
       style="fill:#176a3a;stroke-width:1.33333325"
       d="M 31.93408,539.52663 C 21.164826,536.60563 9.970034,527.5889 4.8714201,517.72926 -0.04730689,508.2175 -0.13402053,503.47264 0.27098987,265.99999 0.72335629,0.76074683 -0.62900928,27.104853 13.247697,13.213496 27.04935,-0.60272843 1.0056105,0.66666664 270.66665,0.66666664 c 224.16012,0 235.66379,0.11524439 242.29365,2.42730886 9.24284,3.2233056 19.28737,12.4284415 23.97253,21.9692065 l 3.73381,7.603483 V 270.66665 508.66664 l -2.88118,6.23423 c -4.08076,8.82983 -12.82068,17.76199 -21.5968,22.07181 l -7.52202,3.69396 -235.33332,0.25264 C 90.209935,541.11587 36.654242,540.80691 31.93408,539.52663 Z M 384.34301,439.37777 c 41.06701,-8.70248 66.46433,-52.88153 52.96166,-92.12769 -7.3975,-21.50123 -23.53873,-37.78689 -44.9365,-45.3386 -10.6224,-3.74885 -29.91071,-4.40007 -41.21033,-1.39132 -23.42037,6.23611 -44.40157,27.21731 -50.63768,50.63768 -2.82995,10.6281 -2.38637,29.99616 0.91343,39.88421 7.29394,21.85676 24.5458,39.29416 45.64581,46.13672 14.12009,4.57902 23.43756,5.12888 37.26361,2.199 z M 193.42466,437.8529 c 29.22838,-8.66552 49.43712,-33.70537 51.4658,-63.76928 2.73758,-40.56934 -30.0185,-75.41697 -70.89047,-75.41697 -38.83652,0 -70.16165,31.13772 -70.42131,70 -0.13989,20.93843 7.19514,38.24476 22.09908,52.14076 9.5817,8.93369 18.69059,14.27566 29.12841,17.08254 9.88084,2.65711 29.59501,2.6382 38.61849,-0.0371 z m -2.16107,-194.55743 c 31.23976,-8.13693 54.12101,-37.16736 54.05003,-68.57561 -0.0703,-31.10695 -19.49916,-58.14735 -49.05971,-68.27962 -12.47074,-4.27451 -31.92832,-4.24846 -44.25392,0.0592 -21.91999,7.66088 -37.80723,23.55027 -45.49432,45.5005 -4.31456,12.32007 -4.34332,31.77332 -0.0654,44.25392 12.1214,35.36377 49.68259,56.19456 84.82335,47.04156 z m 200.78169,-1.22159 c 17.73884,-6.00146 32.15961,-18.14708 40.58619,-34.1829 15.0204,-28.58387 10.12434,-61.20636 -12.59589,-83.92659 -18.2144,-18.2144 -42.70756,-25.186488 -67.74424,-19.2837 -34.85222,8.21694 -58.72054,43.38888 -53.65975,79.07206 3.33238,23.49641 16.56796,42.38648 37.52504,53.55648 11.46596,6.11129 18.45643,7.76663 33.3823,7.90487 10.35528,0.0959 14.75609,-0.51812 22.50635,-3.14022 z"
       id="path32"
       inkscape:connector-curvature="0" />
    <path
       style="fill:#6e231b;stroke-width:1.33333325"
       d="M 31.93408,539.52663 C 21.164826,536.60563 9.970034,527.5889 4.8714201,517.72926 -0.04730689,508.2175 -0.13402053,503.47264 0.27098987,265.99999 0.72335629,0.76074683 -0.62900928,27.104853 13.247697,13.213496 27.04935,-0.60272843 1.0056105,0.66666664 270.66665,0.66666664 c 224.16012,0 235.66379,0.11524439 242.29365,2.42730886 9.24284,3.2233056 19.28737,12.4284415 23.97253,21.9692065 l 3.73381,7.603483 V 270.66665 508.66664 l -2.88118,6.23423 c -4.08076,8.82983 -12.82068,17.76199 -21.5968,22.07181 l -7.52202,3.69396 -235.33332,0.25264 C 90.209935,541.11587 36.654242,540.80691 31.93408,539.52663 Z M 188.66666,439.31875 c 14.06589,-2.96628 25.31257,-9.07569 35.36893,-19.21306 28.39529,-28.62404 28.68344,-72.33908 0.66348,-100.65509 -13.94916,-14.09655 -30.262,-20.78395 -50.69908,-20.78395 -23.66309,0 -42.84831,9.44594 -56.74259,27.93748 -31.276308,41.62485 -8.96119,101.67821 41.89186,112.73737 10.84963,2.35951 18.24799,2.3538 29.5174,-0.0228 z m 195.67635,0.0591 c 41.06701,-8.70248 66.46433,-52.88153 52.96166,-92.12769 -7.3975,-21.50122 -23.53873,-37.78689 -44.9365,-45.3386 -10.6224,-3.74885 -29.91071,-4.40006 -41.21033,-1.39132 -23.42037,6.23611 -44.40157,27.21731 -50.63768,50.63768 -2.82995,10.62811 -2.38637,29.99616 0.91343,39.88421 7.29394,21.85676 24.5458,39.29416 45.64581,46.13672 14.12009,4.57903 23.43756,5.12888 37.26361,2.199 z M 191.26359,243.29547 c 31.23976,-8.13693 54.12101,-37.16736 54.05003,-68.57561 -0.0703,-31.10695 -19.49916,-58.14735 -49.05971,-68.27962 -12.47074,-4.27451 -31.92832,-4.24846 -44.25392,0.0592 -21.91999,7.66088 -37.80723,23.55027 -45.49432,45.5005 -4.31456,12.32007 -4.34332,31.77332 -0.0654,44.25392 12.1214,35.36377 49.68259,56.19456 84.82335,47.04156 z m 200.78169,-1.22159 c 17.73884,-6.00146 32.15961,-18.14708 40.58619,-34.1829 15.0204,-28.58387 10.12434,-61.20636 -12.59589,-83.92659 -18.2144,-18.2144 -42.70756,-25.186488 -67.74424,-19.2837 -34.85222,8.21694 -58.72054,43.38888 -53.65975,79.07206 3.33238,23.49641 16.56796,42.38648 37.52504,53.55648 11.46596,6.11129 18.45643,7.76663 33.3823,7.90487 10.35528,0.0959 14.75609,-0.51812 22.50635,-3.14022 z"
       id="path30"
       inkscape:connector-curvature="0" />
    <path
       style="fill:#123750;stroke-width:1.33333325"
       d="M 31.93408,539.52663 C 21.164826,536.60563 9.970034,527.5889 4.8714201,517.72926 -0.04730689,508.2175 -0.13402053,503.47264 0.27098987,265.99999 0.72335629,0.76074683 -0.62900928,27.104853 13.247697,13.213496 27.04935,-0.60272843 1.0056105,0.66666664 270.66665,0.66666664 c 224.16012,0 235.66379,0.11524439 242.29365,2.42730886 9.24284,3.2233056 19.28737,12.4284415 23.97253,21.9692065 l 3.73381,7.603483 V 270.66665 508.66664 l -2.88118,6.23423 c -4.08076,8.82983 -12.82068,17.76199 -21.5968,22.07181 l -7.52202,3.69396 -235.33332,0.25264 C 90.209935,541.11587 36.654242,540.80691 31.93408,539.52663 Z M 188.66666,439.31875 c 14.06589,-2.96628 25.31257,-9.07569 35.36893,-19.21306 28.39529,-28.62404 28.68344,-72.33908 0.66348,-100.65509 -13.94916,-14.09655 -30.262,-20.78395 -50.69908,-20.78395 -23.66309,0 -42.84831,9.44594 -56.74259,27.93748 -31.276308,41.62485 -8.96119,101.67821 41.89186,112.73737 10.84963,2.35951 18.24799,2.3538 29.5174,-0.0228 z m 195.67635,0.0591 c 41.06701,-8.70248 66.46433,-52.88153 52.96166,-92.12769 -7.3975,-21.50122 -23.53873,-37.78689 -44.9365,-45.3386 -10.6224,-3.74885 -29.91071,-4.40006 -41.21033,-1.39132 -23.42037,6.23611 -44.40157,27.21731 -50.63768,50.63768 -2.82995,10.62811 -2.38637,29.99616 0.91343,39.88421 7.29394,21.85676 24.5458,39.29416 45.64581,46.13672 14.12009,4.57903 23.43756,5.12888 37.26361,2.199 z M 192.47421,243.22107 c 24.31015,-6.26788 44.47898,-26.43671 50.74686,-50.74686 2.61867,-10.1566 2.69909,-26.8171 0.17524,-36.2996 -6.65735,-25.01263 -27.74229,-45.53558 -52.86713,-51.45803 -24.47743,-5.76983 -48.49084,1.17387 -66.56479,19.24781 -18.07394,18.07395 -25.01764,42.08736 -19.24781,66.56479 5.84588,24.80002 26.32289,46.05442 50.87184,52.8031 8.9644,2.46439 27.10841,2.40968 36.88579,-0.1112 z m 199.57107,-1.14719 c 17.73884,-6.00146 32.15961,-18.14708 40.58619,-34.1829 15.0204,-28.58387 10.12434,-61.20636 -12.59589,-83.92659 -18.2144,-18.2144 -42.70756,-25.186488 -67.74424,-19.2837 -34.85222,8.21694 -58.72054,43.38888 -53.65975,79.07206 3.33238,23.49641 16.56796,42.38648 37.52504,53.55648 11.46596,6.11129 18.45643,7.76663 33.3823,7.90487 10.35528,0.0959 14.75609,-0.51812 22.50635,-3.14022 z"
       id="path28"
       inkscape:connector-curvature="0" />
    <path
       style="fill:#104e2b;stroke-width:1.33333325"
       d="M 31.93408,539.52663 C 19.191723,536.07046 7.3437049,525.13766 3.0719571,512.894 0.7889169,506.35036 0.66666664,494.03903 0.66666664,270.66665 0.66666664,0.99004825 -0.60516248,27.058495 13.226666,13.226666 27.058495,-0.60516248 0.99004825,0.66666664 270.66665,0.66666664 c 269.67661,0 243.60817,-1.27182912 257.43999,12.55999936 13.83438,13.834369 12.56,-12.42141633 12.56,258.773324 v 236.66665 l -2.88118,6.23423 c -4.08076,8.82983 -12.82068,17.76199 -21.5968,22.07181 l -7.52202,3.69396 -235.33332,0.25264 C 90.209935,541.11587 36.654242,540.80691 31.93408,539.52663 Z M 188.66666,439.31875 c 14.06589,-2.96628 25.31257,-9.07569 35.36893,-19.21306 28.39529,-28.62404 28.68344,-72.33908 0.66348,-100.65509 -13.94916,-14.09655 -30.262,-20.78395 -50.69908,-20.78395 -23.66309,0 -42.84831,9.44594 -56.74259,27.93748 -31.276308,41.62485 -8.96119,101.67821 41.89186,112.73737 10.84963,2.35951 18.24799,2.3538 29.5174,-0.0228 z m 197.38652,-0.0143 c 13.43099,-3.42895 24.34846,-9.61422 33.99278,-19.25853 23.96615,-23.96615 28.0717,-60.48008 9.98018,-88.76168 -21.38593,-33.4316 -66.07178,-43.46535 -98.78899,-22.18203 -24.11668,15.68848 -36.51492,42.4638 -32.62471,70.45655 5.75924,41.44158 47.47952,69.94783 87.44074,59.74569 z M 192.47421,243.22107 c 24.31015,-6.26788 44.47898,-26.43671 50.74686,-50.74686 2.61867,-10.1566 2.69909,-26.8171 0.17524,-36.2996 -6.65735,-25.01263 -27.74229,-45.53558 -52.86713,-51.45803 -24.47743,-5.76983 -48.49084,1.17387 -66.56479,19.24781 -18.07394,18.07395 -25.01764,42.08736 -19.24781,66.56479 5.84588,24.80002 26.32289,46.05442 50.87184,52.8031 8.9644,2.46439 27.10841,2.40968 36.88579,-0.1112 z m 199.57107,-1.14719 c 17.73884,-6.00146 32.15961,-18.14708 40.58619,-34.1829 15.0204,-28.58387 10.12434,-61.20636 -12.59589,-83.92659 -18.2144,-18.2144 -42.70756,-25.186488 -67.74424,-19.2837 -34.85222,8.21694 -58.72054,43.38888 -53.65975,79.07206 3.33238,23.49641 16.56796,42.38648 37.52504,53.55648 11.46596,6.11129 18.45643,7.76663 33.3823,7.90487 10.35528,0.0959 14.75609,-0.51812 22.50635,-3.14022 z"
       id="path26"
       inkscape:connector-curvature="0" />
    <path
       style="fill:#4e1913;stroke-width:1.33333325"
       d="M 31.93408,539.52663 C 19.191723,536.07046 7.3437049,525.13766 3.0719571,512.894 0.7889169,506.35036 0.66666664,494.03903 0.66666664,270.66665 0.66666664,0.99004825 -0.60516248,27.058495 13.226666,13.226666 27.058495,-0.60516248 0.99004825,0.66666664 270.66665,0.66666664 c 269.67661,0 243.60817,-1.27182912 257.43999,12.55999936 13.83438,13.834369 12.56,-12.42141633 12.56,258.773324 v 236.66665 l -2.88118,6.23423 c -4.08076,8.82983 -12.82068,17.76199 -21.5968,22.07181 l -7.52202,3.69396 -235.33332,0.25264 C 90.209935,541.11587 36.654242,540.80691 31.93408,539.52663 Z m 156.21726,-99.51834 c 10.21192,-1.88403 27.39208,-10.78422 35.00393,-18.13379 14.38631,-13.8906 22.21397,-31.48877 22.48071,-50.54118 0.53736,-38.38109 -26.51239,-68.88283 -64.96932,-73.26048 -12.12909,-1.38069 -24.98703,1.14449 -37.84363,7.43215 -44.613752,21.81882 -54.080118,79.30911 -18.85864,114.53059 17.36988,17.36989 40.04734,24.42631 64.18695,19.97271 z m 197.90184,-0.7038 c 13.43099,-3.42895 24.34846,-9.61422 33.99278,-19.25853 23.96615,-23.96615 28.0717,-60.48008 9.98018,-88.76168 -21.38593,-33.4316 -66.07178,-43.46535 -98.78899,-22.18203 -24.11668,15.68848 -36.51492,42.4638 -32.62471,70.45655 5.75924,41.44158 47.47952,69.94783 87.44074,59.74569 z M 192.47421,243.22107 c 24.31015,-6.26788 44.47898,-26.43671 50.74686,-50.74686 2.61867,-10.1566 2.69909,-26.8171 0.17524,-36.2996 -6.65735,-25.01263 -27.74229,-45.53558 -52.86713,-51.45803 -24.47743,-5.76983 -48.49084,1.17387 -66.56479,19.24781 -18.07394,18.07395 -25.01764,42.08736 -19.24781,66.56479 5.84588,24.80002 26.32289,46.05442 50.87184,52.8031 8.9644,2.46439 27.10841,2.40968 36.88579,-0.1112 z m 199.57107,-1.14719 c 17.73884,-6.00146 32.15961,-18.14708 40.58619,-34.1829 15.0204,-28.58387 10.12434,-61.20636 -12.59589,-83.92659 -18.2144,-18.2144 -42.70756,-25.186488 -67.74424,-19.2837 -34.85222,8.21694 -58.72054,43.38888 -53.65975,79.07206 3.33238,23.49641 16.56796,42.38648 37.52504,53.55648 11.46596,6.11129 18.45643,7.76663 33.3823,7.90487 10.35528,0.0959 14.75609,-0.51812 22.50635,-3.14022 z"
       id="path24"
       inkscape:connector-curvature="0" />
    <path
       style="fill:#0c2c2f;stroke-width:1.33333325"
       d="M 31.93408,539.52663 C 19.191723,536.07046 7.3437049,525.13766 3.0719571,512.894 0.7889169,506.35036 0.66666664,494.03903 0.66666664,270.66665 0.66666664,0.99004825 -0.60516248,27.058495 13.226666,13.226666 27.058495,-0.60516248 0.99004825,0.66666664 270.66665,0.66666664 c 269.67661,0 243.60817,-1.27182912 257.43999,12.55999936 13.83438,13.834369 12.56,-12.42141633 12.56,258.773324 v 236.66665 l -2.88118,6.23423 c -4.08076,8.82983 -12.82068,17.76199 -21.5968,22.07181 l -7.52202,3.69396 -235.33332,0.25264 C 90.209935,541.11587 36.654242,540.80691 31.93408,539.52663 Z m 156.21726,-99.51834 c 10.21192,-1.88403 27.39208,-10.78422 35.00393,-18.13379 14.38631,-13.8906 22.21397,-31.48877 22.48071,-50.54118 0.53736,-38.38109 -26.51239,-68.88283 -64.96932,-73.26048 -12.12909,-1.38069 -24.98703,1.14449 -37.84363,7.43215 -44.613752,21.81882 -54.080118,79.30911 -18.85864,114.53059 17.36988,17.36989 40.04734,24.42631 64.18695,19.97271 z m 197.90184,-0.7038 c 13.43099,-3.42895 24.34846,-9.61422 33.99278,-19.25853 23.96615,-23.96615 28.0717,-60.48008 9.98018,-88.76168 -21.38593,-33.4316 -66.07178,-43.46535 -98.78899,-22.18203 -24.11668,15.68848 -36.51492,42.4638 -32.62471,70.45655 5.75924,41.44158 47.47952,69.94783 87.44074,59.74569 z M 193.69344,243.26568 c 23.0738,-6.54665 42.75047,-26.37234 49.86127,-50.2389 2.8462,-9.55292 2.77924,-27.67141 -0.13915,-37.65332 -9.85102,-33.69397 -38.02244,-53.98228 -72.7489,-52.39184 -24.1676,1.10685 -43.27032,11.91155 -56.6277,32.02923 -13.25636,19.96552 -15.127323,49.89428 -4.42992,70.86293 15.83034,31.03002 51.1497,46.73636 84.0844,37.3919 z m 198.35184,-1.1918 c 17.73884,-6.00146 32.15961,-18.14708 40.58619,-34.1829 15.0204,-28.58387 10.12434,-61.20636 -12.59589,-83.92659 -18.2144,-18.2144 -42.70756,-25.186488 -67.74424,-19.2837 -34.85222,8.21694 -58.72054,43.38888 -53.65975,79.07206 3.33238,23.49641 16.56796,42.38648 37.52504,53.55648 11.46596,6.11129 18.45643,7.76663 33.3823,7.90487 10.35528,0.0959 14.75609,-0.51812 22.50635,-3.14022 z"
       id="path22"
       inkscape:connector-curvature="0" />
    <path
       style="fill:#332901;stroke-width:1.33333325"
       d="M 32.108489,539.2247 C 28.134825,538.1512 22.902188,536.04827 20.480407,534.55152 14.01561,530.55607 5.8816732,520.74736 3.1001352,513.59268 0.78273489,507.63186 0.64971519,496.27185 0.31126519,275.42048 0.0797764,124.36533 0.42253894,40.983177 1.2943634,36.267045 4.745447,17.598415 17.35621,4.8690553 35.88007,1.3560773 c 9.753127,-1.84964251 459.7133,-1.86988694 469.4618,-0.021122 15.2518,2.8924463 28.18356,13.5209067 32.89747,27.0380577 2.31206,6.629855 2.4273,18.133533 2.4273,242.293637 0,269.66105 1.2694,243.61731 -12.54682,257.41897 -13.90256,13.88789 12.76344,12.54448 -254.7865,12.83596 C 71.519314,541.14146 38.339577,540.90806 32.108489,539.2247 Z M 188.15134,440.00829 c 10.21192,-1.88403 27.39208,-10.78422 35.00393,-18.13379 14.38631,-13.8906 22.21397,-31.48877 22.48071,-50.54118 0.53736,-38.38109 -26.51239,-68.88283 -64.96932,-73.26048 -12.12909,-1.38069 -24.98703,1.14449 -37.84363,7.43215 -44.613752,21.81882 -54.080118,79.30911 -18.85864,114.53059 17.36988,17.36989 40.04734,24.42631 64.18695,19.97271 z m 199.23518,-0.72875 c 52.05089,-13.45201 71.61525,-77.99269 35.73822,-117.89657 -35.15742,-39.10353 -99.90339,-27.99002 -120.11227,20.61702 -16.52763,39.75277 6.23396,86.04635 47.80395,97.22592 9.5516,2.56875 26.74063,2.59396 36.5701,0.0536 z M 193.69344,243.26568 c 23.0738,-6.54665 42.75047,-26.37234 49.86127,-50.2389 2.8462,-9.55292 2.77924,-27.67141 -0.13915,-37.65332 -9.85102,-33.69397 -38.02244,-53.98228 -72.7489,-52.39184 -24.1676,1.10685 -43.27032,11.91155 -56.6277,32.02923 -13.25636,19.96552 -15.127323,49.89428 -4.42992,70.86293 15.83034,31.03002 51.1497,46.73636 84.0844,37.3919 z m 198.35184,-1.1918 c 17.73884,-6.00146 32.15961,-18.14708 40.58619,-34.1829 15.0204,-28.58387 10.12434,-61.20636 -12.59589,-83.92659 -18.2144,-18.2144 -42.70756,-25.186488 -67.74424,-19.2837 -34.85222,8.21694 -58.72054,43.38888 -53.65975,79.07206 3.33238,23.49641 16.56796,42.38648 37.52504,53.55648 11.46596,6.11129 18.45643,7.76663 33.3823,7.90487 10.35528,0.0959 14.75609,-0.51812 22.50635,-3.14022 z"
       id="path20"
       inkscape:connector-curvature="0" />
    <path
       style="fill:#082b17;stroke-width:1.33333325"
       d="M 32.108489,539.2247 C 28.134825,538.1512 22.902188,536.04827 20.480407,534.55152 14.01561,530.55607 5.8816732,520.74736 3.1001352,513.59268 0.78273489,507.63186 0.64971519,496.27185 0.31126519,275.42048 0.0797764,124.36533 0.42253894,40.983177 1.2943634,36.267045 4.745447,17.598415 17.35621,4.8690553 35.88007,1.3560773 c 9.753127,-1.84964251 459.7133,-1.86988694 469.4618,-0.021122 15.2518,2.8924463 28.18356,13.5209067 32.89747,27.0380577 2.31206,6.629855 2.4273,18.133533 2.4273,242.293637 0,269.66105 1.2694,243.61731 -12.54682,257.41897 -13.90256,13.88789 12.76344,12.54448 -254.7865,12.83596 C 71.519314,541.14146 38.339577,540.90806 32.108489,539.2247 Z M 188.15134,440.00829 c 10.21192,-1.88403 27.39208,-10.78422 35.00393,-18.13379 14.38631,-13.8906 22.21397,-31.48877 22.48071,-50.54118 0.53736,-38.38109 -26.51239,-68.88283 -64.96932,-73.26048 -12.12909,-1.38069 -24.98703,1.14449 -37.84363,7.43215 -44.613752,21.81882 -54.080118,79.30911 -18.85864,114.53059 17.36988,17.36989 40.04734,24.42631 64.18695,19.97271 z m 199.23518,-0.72875 c 52.05089,-13.45201 71.61525,-77.99269 35.73822,-117.89657 -35.15742,-39.10353 -99.90339,-27.99002 -120.11227,20.61702 -16.52763,39.75277 6.23396,86.04635 47.80395,97.22592 9.5516,2.56875 26.74063,2.59396 36.5701,0.0536 z M 193.69344,243.26568 c 23.0738,-6.54665 42.75047,-26.37234 49.86127,-50.2389 2.8462,-9.55292 2.77924,-27.67141 -0.13915,-37.65332 -9.85102,-33.69397 -38.02244,-53.98228 -72.7489,-52.39184 -24.1676,1.10685 -43.27032,11.91155 -56.6277,32.02923 -13.25636,19.96552 -15.127323,49.89428 -4.42992,70.86293 15.83034,31.03002 51.1497,46.73636 84.0844,37.3919 z m 187.63988,2.03602 c 13.16508,-2.04284 29.59465,-10.61951 39.33333,-20.53303 13.97858,-14.22957 20.66666,-30.72753 20.66666,-50.97998 0,-63.52065 -77.24657,-95.506137 -122.04052,-50.53332 -18.69288,18.76753 -25.73471,42.56165 -19.90955,67.27381 6.27111,26.60398 28.22177,48.2759 54.61674,53.92318 11.39312,2.43759 16.14604,2.58528 27.33334,0.84934 z"
       id="path18"
       inkscape:connector-curvature="0" />
    <path
       style="fill:#2b1009;stroke-width:1.33333325"
       d="M 35.208948,539.97011 C 17.270702,536.37746 4.8037879,523.63295 1.3349554,505.34187 c -1.83004319,-9.64978 -1.83004319,-459.700645 0,-469.350425 C 4.8413679,17.502203 17.461515,4.8490842 35.88007,1.3560773 c 9.851864,-1.8683676 459.72131,-1.8683676 469.57317,0 18.52386,3.512978 31.13462,16.2423377 34.58571,34.9109677 0.87183,4.716132 1.21459,88.098285 0.98309,239.153435 -0.4063,265.13512 0.93983,238.81522 -12.92326,252.6783 -13.87406,13.87406 12.69064,12.53944 -254.09879,12.76613 -128.33333,0.10907 -235.789298,-0.29361 -238.791042,-0.8948 z M 194.85954,438.71507 c 29.51977,-9.12106 49.20489,-34.16851 51.38441,-65.38175 2.42023,-34.66049 -23.65128,-68.28225 -57.8509,-74.6044 -17.00683,-3.14388 -30.97006,-1.15257 -46.47954,6.62848 -29.02866,14.56361 -45.140368,46.73437 -38.71787,77.30925 5.62589,26.7826 23.26959,46.8947 48.80435,55.63224 11.62332,3.97729 30.73366,4.16286 42.85955,0.41618 z m 196.22084,-0.16368 c 21.986,-6.90112 40.56989,-25.48501 47.47101,-47.47101 5.54443,-17.6638 3.08856,-40.53648 -6.14729,-57.25261 -5.02045,-9.08661 -19.54524,-23.09822 -29.19488,-28.16338 -28.2665,-14.8373 -61.78747,-9.66088 -84.49659,13.04824 -28.63726,28.63726 -28.67268,72.64273 -0.0816,101.36195 14.90805,14.97485 29.50115,21.05892 50.81105,21.18384 9.39766,0.0551 15.11876,-0.66064 21.63828,-2.70703 z M 193.69344,243.26568 c 23.0738,-6.54665 42.75047,-26.37234 49.86127,-50.2389 2.8462,-9.55292 2.77924,-27.67141 -0.13915,-37.65332 -9.85102,-33.69397 -38.02244,-53.98228 -72.7489,-52.39184 -24.1676,1.10685 -43.27032,11.91155 -56.6277,32.02923 -13.25636,19.96552 -15.127323,49.89428 -4.42992,70.86293 15.83034,31.03002 51.1497,46.73636 84.0844,37.3919 z m 187.63988,2.03602 c 13.16508,-2.04284 29.59465,-10.61951 39.33333,-20.53303 13.97858,-14.22957 20.66666,-30.72753 20.66666,-50.97998 0,-63.52065 -77.24657,-95.506137 -122.04052,-50.53332 -18.69288,18.76753 -25.73471,42.56165 -19.90955,67.27381 6.27111,26.60398 28.22177,48.2759 54.61674,53.92318 11.39312,2.43759 16.14604,2.58528 27.33334,0.84934 z"
       id="path16"
       inkscape:connector-curvature="0" />
    <path
       style="fill:#000000;stroke-width:1.33333325"
       d="M 34.926954,539.91095 C 16.865467,536.35452 4.1421376,522.71888 1.225775,503.79327 0.40307084,498.45437 0.05946648,410.23561 0.29439769,264.66666 l 0.37226895,-230.666661 3.73634956,-8 C 9.2532321,15.61507 15.710781,9.1183815 25.831847,4.4412893 L 33.999999,0.66666664 H 270.66665 507.33331 l 8.16815,3.77462266 c 13.4346,6.2083237 21.70574,16.8324947 24.47577,31.4387807 1.86837,9.851864 1.86837,459.72131 0,469.57317 -3.493,18.41855 -16.14612,31.0387 -34.63536,34.54511 -8.71877,1.65348 -462.001473,1.56927 -470.414916,-0.0875 z M 194.85954,438.71507 c 29.51977,-9.12106 49.20489,-34.16851 51.38441,-65.38175 2.42023,-34.66049 -23.65128,-68.28225 -57.8509,-74.6044 -17.00683,-3.14388 -30.97006,-1.15257 -46.47954,6.62848 -29.02866,14.56361 -45.140368,46.73437 -38.71787,77.30925 5.62589,26.7826 23.26959,46.8947 48.80435,55.63224 11.62332,3.97729 30.73366,4.16286 42.85955,0.41618 z m 196.22084,-0.16368 c 21.986,-6.90112 40.56989,-25.48501 47.47101,-47.47101 5.54443,-17.6638 3.08856,-40.53648 -6.14729,-57.25261 -5.02045,-9.08661 -19.54524,-23.09822 -29.19488,-28.16338 -28.2665,-14.8373 -61.78747,-9.66088 -84.49659,13.04824 -28.63726,28.63726 -28.67268,72.64273 -0.0816,101.36195 14.90805,14.97485 29.50115,21.05892 50.81105,21.18384 9.39766,0.0551 15.11876,-0.66064 21.63828,-2.70703 z M 190.52918,244.61674 c 38.70145,-9.12274 63.3807,-48.98482 53.9858,-87.19823 -3.2353,-13.15948 -9.29888,-23.61376 -19.80779,-34.15084 -43.83138,-43.948891 -116.77878,-16.62841 -122.76447,45.97812 -1.06885,11.17947 1.8949,25.66587 7.64656,37.37536 5.20675,10.60013 19.85357,25.70653 30.34502,31.29719 15.37831,8.19474 33.86427,10.64214 50.59488,6.6984 z M 386.58146,244.515 c 12.84327,-3.15756 23.62238,-9.31934 33.49312,-19.14605 14.92177,-14.85521 21.66217,-30.87639 21.56403,-51.25529 -0.25492,-52.9353 -54.26409,-87.612464 -102.2437,-65.64667 -20.71692,9.48452 -36.67504,29.55096 -40.66484,51.13376 -6.08678,32.92638 8.09108,62.52397 37.87298,79.06348 13.16624,7.31192 34.07793,9.75997 49.97841,5.85077 z"
       id="path14"
       inkscape:connector-curvature="0" />
  </g>
</svg>
