<?xml version="1.0" encoding="UTF-8" standalone="no"?>
<!-- Created with Inkscape (http://www.inkscape.org/) -->

<svg
   xmlns:dc="http://purl.org/dc/elements/1.1/"
   xmlns:cc="http://creativecommons.org/ns#"
   xmlns:rdf="http://www.w3.org/1999/02/22-rdf-syntax-ns#"
   xmlns:svg="http://www.w3.org/2000/svg"
   xmlns="http://www.w3.org/2000/svg"
   xmlns:sodipodi="http://sodipodi.sourceforge.net/DTD/sodipodi-0.dtd"
   xmlns:inkscape="http://www.inkscape.org/namespaces/inkscape"
   version="1.1"
   id="svg179"
   width="546.24237"
   height="513.82123"
   viewBox="0 0 546.24237 513.82123"
   sodipodi:docname="broom.svg"
   inkscape:version="0.92.5 (2060ec1f9f, 2020-04-08)">
  <metadata
     id="metadata185">
    <rdf:RDF>
      <cc:Work
         rdf:about="">
        <dc:format>image/svg+xml</dc:format>
        <dc:type
           rdf:resource="http://purl.org/dc/dcmitype/StillImage" />
        <dc:title></dc:title>
      </cc:Work>
    </rdf:RDF>
  </metadata>
  <defs
     id="defs183" />
  <sodipodi:namedview
     pagecolor="#ffffff"
     bordercolor="#666666"
     borderopacity="1"
     objecttolerance="10"
     gridtolerance="10"
     guidetolerance="10"
     inkscape:pageopacity="0"
     inkscape:pageshadow="2"
     inkscape:window-width="1920"
     inkscape:window-height="1011"
     id="namedview181"
     showgrid="false"
     inkscape:zoom="0.86425786"
     inkscape:cx="293.83251"
     inkscape:cy="286.98739"
     inkscape:window-x="0"
     inkscape:window-y="0"
     inkscape:window-maximized="1"
     inkscape:current-layer="svg179" />
  <g
     id="g189"
     transform="translate(0.05454222,-16.331869)">
    <path
       style="fill:#f2da63;stroke-width:1.0666666"
       d="m 111.65305,528.62711 c -3.51661,-1.55539 -73.373592,-70.96223 -76.590404,-76.09687 -3.705794,-5.91514 -2.682637,-15.10646 2.261927,-20.31955 1.281192,-1.35077 23.524884,-13.03995 49.430427,-25.97596 47.09011,-23.51459 47.10238,-23.51992 53.13537,-23.08353 4.54533,0.32878 7.01049,1.181 9.99008,3.45365 l 3.9557,3.01716 49.99919,-49.99069 49.99917,-49.99069 -4.9565,-5.03217 c -3.97234,-4.03298 -5.33189,-4.83125 -6.84713,-4.02032 -6.66103,3.56488 -14.27156,-3.24271 -11.56972,-10.34906 0.89036,-2.34181 0.67728,-3.25096 -1.24026,-5.29209 -1.77143,-1.88561 -2.76536,-2.22365 -4.23131,-1.43909 -6.67323,3.5714 -13.89759,-2.75329 -11.38332,-9.96573 0.87838,-2.51971 0.65139,-3.42286 -1.41239,-5.61966 -1.66074,-1.76777 -2.80982,-2.2666 -3.53977,-1.53665 -1.91542,1.91543 -7.97804,1.22354 -10.38696,-1.18538 -1.88588,-1.88588 -2.16661,-3.10695 -1.67282,-7.27625 l 0.59337,-5.01008 -61.754,-61.74711 -61.754004,-61.74712 -2.476419,2.32647 -2.476419,2.32648 L 35.542216,80.769765 C 17.290663,62.453059 1.8271208,46.41822 1.1787877,45.136788 -1.0051946,40.820144 -0.23572391,34.773087 3.0675699,30.293372 10.461845,20.265733 18.602778,15.250323 25.411786,16.527701 c 3.061782,0.574394 8.770537,5.645558 31.726608,28.183182 15.396162,15.115514 30.756577,30.467726 34.134256,34.116023 l 6.141237,6.633269 -2.320066,2.320066 -2.320065,2.320066 62.003644,62.010433 c 61.27681,61.28353 62.03925,61.99699 65.04146,60.86379 4.02664,-1.5199 8.43882,0.0717 10.53074,3.79868 1.33598,2.38023 1.39006,3.47593 0.31247,6.33081 -1.15461,3.05887 -1.05311,3.71855 0.89039,5.7873 1.89463,2.01674 2.61442,2.17605 5.2822,1.16907 6.87919,-2.59661 13.40455,3.45929 10.89407,10.11029 -1.16073,3.07514 -1.05533,3.71619 0.96458,5.86628 1.73079,1.84234 2.72137,2.17108 4.18374,1.38844 7.45049,-3.98737 15.46444,3.59228 11.54376,10.91816 -1.02477,1.91477 -0.53586,2.84665 3.73333,7.11584 l 4.91251,4.91251 4.91251,-4.91251 c 4.26919,-4.26919 4.7581,-5.20107 3.73333,-7.11584 -1.74924,-3.26852 -1.44204,-5.98835 1.03158,-9.13306 2.33793,-2.9722 6.8594,-3.74 10.51218,-1.7851 1.46237,0.78264 2.45295,0.4539 4.18374,-1.38844 2.01991,-2.15009 2.12531,-2.79114 0.96458,-5.86628 -2.51048,-6.651 4.01488,-12.7069 10.89407,-10.11029 2.66778,1.00698 3.38757,0.84767 5.2822,-1.16907 1.9435,-2.06875 2.045,-2.72843 0.89039,-5.7873 -1.07759,-2.85488 -1.02351,-3.95058 0.31247,-6.33081 2.09192,-3.72699 6.5041,-5.31858 10.53074,-3.79868 3.00221,1.1332 3.76465,0.41974 65.04146,-60.86379 l 62.00365,-62.010433 -2.32007,-2.320066 -2.32007,-2.320066 6.14123,-6.633269 c 3.37769,-3.648297 18.7381,-19.000509 34.13426,-34.116023 22.95608,-22.537624 28.66483,-27.608788 31.72661,-28.183182 6.80902,-1.277378 14.94995,3.738032 22.34422,13.765671 3.30329,4.479715 4.07276,10.526772 1.88879,14.843416 -0.64835,1.281432 -16.11189,17.316271 -34.36344,35.632977 l -33.18463,33.303105 -2.47643,-2.32648 -2.47642,-2.32647 -61.754,61.74712 -61.754,61.74711 0.59337,5.01008 c 0.49379,4.1693 0.21306,5.39037 -1.67282,7.27625 -2.40892,2.40892 -8.47154,3.10081 -10.38696,1.18538 -0.72995,-0.72995 -1.87903,-0.23112 -3.53977,1.53665 -2.06378,2.1968 -2.29077,3.09995 -1.41239,5.61966 2.51427,7.21244 -4.71009,13.53713 -11.38332,9.96573 -1.46595,-0.78456 -2.45988,-0.44652 -4.23131,1.43909 -1.91754,2.04113 -2.13062,2.95028 -1.24026,5.29209 2.70184,7.10635 -4.90869,13.91394 -11.56972,10.34906 -1.51524,-0.81093 -2.87479,-0.0127 -6.84713,4.02032 l -4.9565,5.03217 49.99917,49.99069 49.99919,49.99069 3.9557,-3.01716 c 2.97959,-2.27265 5.44475,-3.12487 9.99008,-3.45365 6.03299,-0.43639 6.04526,-0.43106 53.13537,23.08353 25.90554,12.93601 48.14923,24.62519 49.43043,25.97596 1.28119,1.35078 2.80042,3.65595 3.37608,5.12262 1.4397,3.66811 1.32462,11.02429 -0.21959,14.03736 -2.26997,4.42913 -73.87268,75.60425 -77.69551,77.23153 -6.72751,2.8637 -14.22389,1.26008 -19.16284,-4.09929 -3.2111,-3.48442 -47.86698,-93.51731 -48.769,-98.32556 -0.8252,-4.39866 0.95561,-10.24074 4.35202,-14.27714 l 2.50658,-2.9789 -50.06492,-50.0564 -50.0649,-50.05642 -50.0649,50.05642 -50.06492,50.0564 2.50658,2.9789 c 3.39641,4.0364 5.17722,9.87848 4.35202,14.27714 -0.90202,4.80825 -45.5579,94.84114 -48.769,98.32556 -4.84419,5.25655 -12.92428,6.97664 -19.37338,4.1242 z m 148.6136,-337.56835 c -12.1808,-3.93074 -20.08956,-9.72985 -26.63299,-19.52872 -20.78407,-31.1244 1.89565,-73.438533 39.33331,-73.385167 13.79072,0.01966 25.08082,4.811117 34.29634,14.555167 10.02583,10.60084 15.02869,26.11384 12.82815,39.77791 -2.98384,18.52799 -17.15235,34.35817 -34.88578,38.97713 -8.09611,2.10877 -17.64642,1.957 -24.93903,-0.39632 z"
       id="path203"
       inkscape:connector-curvature="0" />
    <path
       style="fill:#e4c64c;stroke-width:1.0666666"
       d="m 111.46666,528.0917 c -5.24157,-2.45054 -75.596618,-72.76497 -77.272442,-77.22783 -2.608464,-6.94657 -0.870484,-14.73035 4.371098,-19.57657 1.375742,-1.27198 23.32212,-12.67198 48.76973,-25.33333 56.463034,-28.09297 53.819384,-27.55891 68.388074,-13.81555 l 7.61721,7.18568 64.70909,-64.70907 64.70907,-64.70908 -4.92262,-5.08632 c -2.70744,-2.79747 -5.46972,-6.15647 -6.1384,-7.46442 -2.59085,-5.06779 1.53953,-10.95523 7.6857,-10.95523 2.22995,0 4.68128,1.56376 9.18415,5.85877 l 6.1423,5.85876 2.51937,-2.68175 2.51939,-2.68175 -5.7542,-5.82657 c -4.84298,-4.90388 -5.7542,-6.44225 -5.7542,-9.71444 0,-4.65457 3.31148,-7.87968 8.09069,-7.87968 2.37438,0 4.68956,1.45798 9.30332,5.85876 l 6.1423,5.85876 2.31782,-2.46721 2.31783,-2.46721 -2.81722,-2.59155 c -4.63191,-4.26089 -8.92807,-10.74104 -8.92807,-13.46674 0,-3.60778 4.5293,-7.79148 8.43511,-7.79148 2.40509,0 4.73288,1.44091 9.38181,5.80736 l 6.18308,5.80737 62.1217,-62.05898 62.12169,-62.058976 -7.09604,-7.150838 -7.09604,-7.150839 6.14196,-6.634054 c 3.37808,-3.64873 18.73882,-19.001296 34.13498,-34.11681 22.95608,-22.537624 28.66483,-27.608788 31.72661,-28.183182 6.80902,-1.277378 14.94995,3.738032 22.34422,13.765671 3.47086,4.706947 4.06161,10.607684 1.53772,15.359596 -0.84141,1.584199 -16.34671,17.662797 -34.45622,35.730217 -32.67828,32.602325 -32.94126,32.833405 -34.90214,30.666665 -1.08667,-1.20076 -2.50292,-2.18319 -3.14722,-2.18319 -0.64431,0 -28.99713,27.82878 -63.00629,61.84172 -48.7504,48.75583 -61.55869,62.11785 -60.52987,63.14667 2.18324,2.18324 1.55513,7.73801 -1.16381,10.29234 -2.7038,2.54008 -6.08204,2.95584 -9.43535,1.1612 -3.0089,-1.6103 -7.74206,2.59799 -6.18799,5.50179 4.01417,7.50054 -3.51573,15.50541 -10.87868,11.56488 -1.7536,-0.9385 -2.63236,-0.71791 -4.63499,1.16348 -2.26269,2.12567 -2.3544,2.60581 -1.08721,5.69138 1.56336,3.80673 0.83091,6.65975 -2.47239,9.63044 -2.16151,1.94386 -5.72191,2.03167 -9.86004,0.24317 -1.23063,-0.5319 -4.19259,1.99278 -10.8618,9.25824 l -9.16975,9.98954 49.99326,49.98478 49.99325,49.98476 7.61558,-7.18416 c 14.56682,-13.74159 11.92417,-14.27552 68.38646,13.81708 25.44762,12.66135 47.394,24.06135 48.76973,25.33333 5.51966,5.10331 7.12613,13.49395 3.88946,20.31472 -0.88506,1.86512 -18.04505,19.77626 -38.13333,39.80252 -39.27964,39.15838 -40.30742,39.95735 -49.24405,38.28083 -7.71093,-1.44659 -9.39476,-4.1001 -34.21342,-53.91632 -26.7572,-53.70729 -26.55677,-53.07774 -19.90322,-62.51721 l 3.56344,-5.05549 -50.2301,-50.23011 -50.23011,-50.2301 -50.23011,50.2301 -50.2301,50.23011 3.56344,5.05549 c 6.65526,9.44189 6.85509,8.81475 -19.90322,62.46695 -12.90667,25.87872 -24.66667,48.1982 -26.13333,49.59884 -5.33481,5.09464 -11.68465,6.03829 -18.66667,2.77407 z M 249.44635,284.14108 c -4.25727,-4.25727 -5.18827,-4.74491 -7.10279,-3.72028 -3.46991,1.85704 -7.11501,1.38805 -9.48854,-1.22082 -3.07737,-3.38249 -3.4405,-5.11687 -1.87801,-8.96986 1.2478,-3.07702 1.15181,-3.57161 -1.1046,-5.69138 -2.00263,-1.88139 -2.88139,-2.10198 -4.63499,-1.16348 -7.34666,3.93181 -14.88396,-4.08094 -10.87868,-11.56488 1.55407,-2.9038 -3.17909,-7.11209 -6.18799,-5.50179 -3.45371,1.84838 -7.08333,1.35203 -9.58483,-1.31068 -2.5498,-2.71416 -3.08558,-8.07161 -1.01433,-10.14286 1.02882,-1.02882 -11.77947,-14.39084 -60.52987,-63.14667 -34.00916,-34.01294 -62.361986,-61.84172 -63.00629,-61.84172 -0.644304,0 -2.060553,0.98243 -3.147221,2.18319 -1.960872,2.16674 -2.223863,1.93566 -34.90214,-30.666665 C 17.876561,63.315765 2.3712597,47.237167 1.5298449,45.652968 -0.99403461,40.901056 -0.4032827,35.000319 3.0675699,30.293372 10.461845,20.265733 18.602778,15.250323 25.411786,16.527701 c 3.061782,0.574394 8.770537,5.645558 31.726608,28.183182 15.396162,15.115514 30.756904,30.46808 34.134985,34.11681 l 6.141964,6.634054 -7.096043,7.150839 -7.096043,7.150838 62.121693,62.058976 62.1217,62.05898 6.18308,-5.80737 c 4.64893,-4.36645 6.97672,-5.80736 9.38181,-5.80736 3.90581,0 8.43511,4.1837 8.43511,7.79148 0,2.7257 -4.29616,9.20585 -8.92807,13.46674 l -2.81722,2.59155 2.31783,2.46721 2.31782,2.46721 6.1423,-5.85876 c 4.61376,-4.40078 6.92894,-5.85876 9.30332,-5.85876 4.77921,0 8.09069,3.22511 8.09069,7.87968 0,3.27219 -0.91122,4.81056 -5.7542,9.71444 l -5.7542,5.82657 2.51939,2.68175 2.51937,2.68175 6.1423,-5.85876 c 4.50287,-4.29501 6.9542,-5.85877 9.18415,-5.85877 6.14617,0 10.27655,5.88744 7.6857,10.95523 -0.66868,1.30795 -3.42225,4.65811 -6.11905,7.44477 l -4.90327,5.06667 5.03055,5.10734 5.03055,5.10735 -4.5644,4.4796 -4.56439,4.47962 z m 10.8203,-93.08588 c -8.74005,-2.82573 -14.06403,-5.8673 -19.4746,-11.12577 -10.0534,-9.77078 -14.764,-20.75716 -14.71935,-34.32944 0.0415,-12.62872 3.10074,-21.20937 10.90303,-30.5816 14.26819,-17.13916 38.7815,-21.762127 59.25495,-11.1749 6.76032,3.49591 15.11538,12.41498 19.008,20.29115 15.93885,32.25007 -7.20941,69.11434 -43.2387,68.85888 -3.22666,-0.0229 -8.50666,-0.89512 -11.73333,-1.93832 z"
       id="path201"
       inkscape:connector-curvature="0" />
    <path
       style="fill:#f49260;stroke-width:1.0666666"
       d="m 111.46666,528.0917 c -5.24157,-2.45054 -75.596618,-72.76497 -77.272442,-77.22783 -2.608464,-6.94657 -0.870484,-14.73035 4.371098,-19.57657 1.375742,-1.27198 23.32212,-12.67198 48.76973,-25.33333 48.866064,-24.31313 50.475424,-24.91557 58.454834,-21.8818 1.6475,0.62638 9.55038,7.70638 17.56196,15.73333 16.49645,16.52812 18.38705,19.87434 15.90657,28.15346 -2.15189,7.18235 -46.50484,95.00175 -49.27745,97.56996 -5.28066,4.89136 -11.64828,5.77278 -18.5143,2.56278 z m 309.86719,0.84325 c -1.46637,-0.58472 -3.7978,-2.11429 -5.18097,-3.39906 -2.77548,-2.578 -47.1287,-90.40328 -49.27799,-97.57693 -2.48048,-8.27912 -0.58988,-11.62534 15.90657,-28.15346 8.01158,-8.02695 15.91446,-15.10695 17.56196,-15.73333 7.97941,-3.03377 9.58877,-2.43133 58.45483,21.8818 25.44762,12.66135 47.394,24.06135 48.76973,25.33333 5.24159,4.84622 6.97956,12.63 4.3711,19.57657 -1.67583,4.46286 -72.03087,74.77729 -77.27244,77.22783 -4.68709,2.19131 -9.23136,2.47871 -13.33279,0.84325 z M 232.8782,279.19998 c -5.17659,-5.75091 -3.7561,-8.91896 10.04371,-22.4 8.54391,-8.34654 11.26038,-10.4 13.75799,-10.4 6.54738,0 10.36007,5.8833 7.43699,11.47588 -0.8406,1.60826 -6.30354,7.60412 -12.13988,13.32412 -11.65698,11.42462 -14.82261,12.75063 -19.09881,8 z m 61.27809,-8 c -5.83634,-5.72 -11.29928,-11.71586 -12.13988,-13.32412 -2.92308,-5.59258 0.88961,-11.47588 7.43699,-11.47588 2.49761,0 5.21408,2.05346 13.75799,10.4 13.79981,13.48104 15.2203,16.64909 10.04371,22.4 -4.2762,4.75063 -7.44183,3.42462 -19.09881,-8 z m -78.50371,-9.13541 c -1.43841,-1.53112 -2.31926,-3.8403 -2.31926,-6.08 0,-3.16987 1.40804,-5.01929 11.52,-15.13125 9.67676,-9.67676 12.04724,-11.52 14.81517,-11.52 4.93771,0 8.22483,3.17807 8.22483,7.952 0,3.62669 -0.99152,4.94078 -11.77371,15.60409 -12.95329,12.81048 -15.83724,14.10333 -20.46703,9.17516 z m 94.36111,-9.17516 c -10.78219,-10.66331 -11.77371,-11.9774 -11.77371,-15.60409 0,-4.77393 3.28712,-7.952 8.22483,-7.952 2.76793,0 5.13841,1.84324 14.81517,11.52 10.29229,10.29229 11.52,11.92079 11.52,15.28073 0,4.60655 -3.60116,8.39927 -7.97504,8.39927 -2.4344,0 -5.37536,-2.31205 -14.81125,-11.64391 z m -111.42777,-7.8915 c -1.42587,-1.51778 -2.31927,-3.84157 -2.31927,-6.0326 0,-3.11048 1.47151,-5.03535 11.56741,-15.13125 9.89386,-9.89387 12.06139,-11.56741 14.98182,-11.56741 4.30843,0 8.65077,4.09958 8.65077,8.16712 0,2.31251 -2.54217,5.47293 -12.05106,14.98182 -10.05014,10.05014 -12.5873,12.05106 -15.28073,12.05106 -1.99677,0 -4.11503,-0.94242 -5.54894,-2.46874 z m 128.13179,-9.58232 c -9.50889,-9.50889 -12.05106,-12.66931 -12.05106,-14.98182 0,-4.06754 4.34234,-8.16712 8.65077,-8.16712 2.92043,0 5.08796,1.67354 14.98182,11.56741 10.28172,10.28172 11.56741,11.98013 11.56741,15.28073 0,4.57374 -3.62696,8.35186 -8.01769,8.35186 -2.50293,0 -5.33864,-2.25845 -15.13125,-12.05106 z M 260.26665,191.0552 c -8.74005,-2.82573 -14.06403,-5.8673 -19.4746,-11.12577 -10.0534,-9.77078 -14.764,-20.75716 -14.71935,-34.32944 0.0415,-12.62872 3.10074,-21.20937 10.90303,-30.5816 14.26819,-17.13916 38.7815,-21.762127 59.25495,-11.1749 6.76032,3.49591 15.11538,12.41498 19.008,20.29115 15.93885,32.25007 -7.20941,69.11434 -43.2387,68.85888 -3.22666,-0.0229 -8.50666,-0.89512 -11.73333,-1.93832 z M 35.573186,80.800746 C 17.304601,62.467001 1.8271208,46.41822 1.1787877,45.136788 -1.0051946,40.820144 -0.23572391,34.773087 3.0675699,30.293372 10.461845,20.265733 18.602778,15.250323 25.411786,16.527701 c 3.061782,0.574394 8.770537,5.645558 31.726608,28.183182 15.396162,15.115514 30.761938,30.473517 34.14617,34.128891 l 6.153151,6.646137 -14.324459,14.324458 -14.324458,14.324461 z m 427.435394,19.00801 -14.30355,-14.333048 6.14842,-6.641035 c 3.38165,-3.65257 18.74529,-19.008276 34.14145,-34.12379 22.95608,-22.537624 28.66483,-27.608788 31.72661,-28.183182 6.80902,-1.277378 14.94995,3.738032 22.34422,13.765671 3.47086,4.706947 4.06161,10.607684 1.53772,15.359596 -0.84141,1.584199 -16.32617,17.642269 -34.41059,35.684598 l -32.88074,32.804244 z"
       id="path199"
       inkscape:connector-curvature="0" />
    <path
       style="fill:#f7633b;stroke-width:1.0666666"
       d="m 113.26972,528.92087 c -2.60728,-0.74952 -13.20474,-10.783 -40.533333,-38.37624 -20.351681,-20.54874 -37.652268,-38.88484 -38.445748,-40.74685 -0.813364,-1.90869 -1.224285,-5.3232 -0.942007,-7.82756 1.00474,-8.91403 1.567884,-9.28996 50.802503,-33.91247 25.041985,-12.52364 47.506135,-23.36205 49.920315,-24.08536 8.05588,-2.41361 10.71646,-1.08856 25.63715,12.76797 17.10304,15.88323 18.74568,18.07141 19.24983,25.64282 0.3856,5.79101 0.0392,6.60087 -22.05067,51.53959 -12.34333,25.11086 -23.45497,47.0781 -24.69253,48.81609 -3.89365,5.46813 -12.10657,8.14804 -18.94551,6.18201 z m 310.32791,0.15398 c -7.51849,-1.79688 -8.28996,-3.02067 -32.62698,-51.75662 -30.87342,-61.82539 -30.56801,-56.41174 -4.54595,-80.57787 14.92069,-13.85653 17.58127,-15.18158 25.63715,-12.76797 2.41418,0.72331 24.87833,11.56172 49.92032,24.08536 47.67193,23.84101 49.17623,24.80107 50.68563,32.34806 1.7156,8.57801 1.62087,8.70039 -37.20314,48.06123 -19.99989,20.27645 -37.60121,37.65702 -39.11406,38.62352 -3.62542,2.31612 -8.31282,3.04545 -12.75297,1.98429 z M 235.00305,280.52587 c -2.84266,-1.14533 -4.60306,-4.22327 -4.60306,-8.04813 0,-2.20328 2.51786,-5.39798 10.93333,-13.87232 6.66649,-6.71312 12.11433,-11.29734 13.95952,-11.74657 4.42769,-1.07795 8.60855,2.32832 9.03715,7.36283 0.30683,3.60416 -0.36746,4.59973 -9.6,14.17429 -8.02818,8.32558 -14.924,13.62434 -17.09574,13.1364 -0.16552,-0.0372 -1.34955,-0.49012 -2.6312,-1.0065 z m 69.53026,-0.43092 c -1.76,-0.7722 -7.6685,-6.03739 -13.13,-11.70042 -9.23275,-9.57342 -9.90684,-10.56862 -9.6,-14.17285 0.4286,-5.03451 4.60946,-8.44078 9.03715,-7.36283 1.84519,0.44923 7.29303,5.03345 13.95952,11.74657 9.00186,9.06485 10.93333,11.57647 10.93333,14.21736 0,6.18682 -5.51384,9.76697 -11.2,7.27217 z M 217.6177,263.16158 c -3.62466,-1.83395 -4.98888,-6.08562 -3.278,-10.21606 1.65877,-4.00463 21.13163,-22.17142 24.73474,-23.07574 4.08591,-1.0255 8.39221,2.91773 8.39221,7.68464 0,3.35431 -1.15631,4.98151 -9.86666,13.88483 -8.85361,9.04972 -13.98808,13.12429 -16.48037,13.07834 -0.46913,-0.009 -2.045,-0.61884 -3.50192,-1.35601 z m 102.91561,-0.60162 c -1.76,-1.11096 -7.4,-6.33964 -12.53333,-11.61927 -8.18409,-8.41733 -9.33333,-10.06641 -9.33333,-13.3926 0,-4.75118 4.30976,-8.70294 8.37783,-7.68192 3.19353,0.80153 22.20623,18.10295 24.26487,22.08084 1.98938,3.8441 1.87873,6.55799 -0.37604,9.22265 -2.7393,3.2373 -6.64651,3.75963 -10.4,1.3903 z M 200.86972,246.39254 c -2.71262,-1.09294 -4.60307,-4.19109 -4.60307,-7.54373 0,-2.7036 20.28578,-24.04394 24.3651,-25.63174 5.44813,-2.12057 11.68034,4.10251 9.62516,9.61107 -1.23743,3.3167 -18.38069,20.95151 -22.47062,23.11492 -3.26064,1.72474 -3.68326,1.75221 -6.91657,0.44948 z m 136.73026,-0.92055 c -4.79489,-3.05863 -20.53829,-19.46928 -21.72318,-22.64385 -2.05591,-5.5083 4.17638,-11.73174 9.62475,-9.61107 1.37413,0.53486 7.41843,5.99023 13.43176,12.12305 11.59293,11.8233 12.8091,14.34009 9.06667,18.76287 -2.74829,3.24792 -6.64945,3.76144 -10.4,1.369 z m -74.91781,-54.0497 c -26.26455,-7.07336 -41.52999,-32.11687 -34.95774,-57.34944 4.43047,-17.00971 15.97211,-28.86523 33.06833,-33.96766 23.0088,-6.867051 49.10784,6.93648 56.93435,30.11201 2.82751,8.37273 3.07158,21.72534 0.53328,29.17485 -5.95478,17.4763 -20.26441,29.83007 -37.72707,32.57046 -8.77738,1.37741 -10.97793,1.31082 -17.85115,-0.54022 z M 35.573186,80.800746 C 17.304601,62.467001 1.8271208,46.41822 1.1787877,45.136788 -1.0051946,40.820144 -0.23572391,34.773087 3.0675699,30.293372 10.461845,20.265733 18.602778,15.250323 25.411786,16.527701 c 3.061782,0.574394 8.770537,5.645558 31.726608,28.183182 15.396162,15.115514 30.761938,30.473517 34.14617,34.128891 l 6.153151,6.646137 -14.324459,14.324458 -14.324458,14.324461 z m 427.435394,19.00801 -14.30355,-14.333048 6.14842,-6.641035 c 3.38165,-3.65257 18.74529,-19.008276 34.14145,-34.12379 22.95608,-22.537624 28.66483,-27.608788 31.72661,-28.183182 6.80902,-1.277378 14.94995,3.738032 22.34422,13.765671 3.47086,4.706947 4.06161,10.607684 1.53772,15.359596 -0.84141,1.584199 -16.32617,17.642269 -34.41059,35.684598 l -32.88074,32.804244 z"
       id="path197"
       inkscape:connector-curvature="0" />
    <path
       style="fill:#10b2c1;stroke-width:1.0666666"
       d="m 110.39999,527.05649 c -1.76,-1.10118 -4.98223,-3.86144 -7.16052,-6.13389 l -3.960525,-4.13172 4.785425,0.3806 c 12.86827,1.02345 12.84698,1.05188 40.14239,-53.60967 l 23.4785,-47.01782 -0.44614,-6.16793 -0.44616,-6.16792 4.72533,4.56259 c 2.59894,2.50942 5.39052,6.10716 6.20352,7.99498 3.39517,7.88377 2.97869,8.99453 -22.40429,59.75219 -22.75782,45.50819 -24.0832,47.86994 -28.14523,50.15293 -5.29884,2.97811 -12.36903,3.14069 -16.7723,0.38566 z m 308.41837,-0.41436 c -3.85083,-2.22303 -5.64802,-5.44053 -27.99999,-50.12843 -25.38611,-50.75397 -25.80229,-51.86368 -22.40688,-59.74799 0.813,-1.88782 3.60458,-5.48556 6.20352,-7.99498 l 4.72533,-4.56259 -0.44616,6.16792 -0.44614,6.16793 23.4785,47.01782 c 27.29695,54.66464 27.27339,54.63318 40.14708,53.60929 l 4.79009,-0.38097 -4.49853,4.6238 c -2.4742,2.54309 -5.7947,5.30531 -7.3789,6.13826 -4.27268,2.2465 -11.39438,1.84563 -16.16792,-0.91006 z M 100.75151,480.58178 c -5.121924,-5.12192 -4.122601,-6.9162 14.03832,-25.20573 9.58048,-9.64832 17.72448,-16.97863 19.17044,-17.25504 3.49815,-0.66872 7.10265,1.37744 8.8514,5.02465 1.30234,2.71613 1.25383,3.50018 -0.40738,6.58485 -1.03716,1.92589 -8.72934,10.24438 -17.09373,18.48554 -13.08261,12.88986 -15.67846,14.98392 -18.57443,14.98392 -2.15202,0 -4.31093,-0.94449 -5.98462,-2.61819 z m 320.07123,-12.36573 c -8.36439,-8.24116 -16.05657,-16.55965 -17.09373,-18.48554 -1.66121,-3.08467 -1.70972,-3.86872 -0.40738,-6.58485 1.74875,-3.64721 5.35325,-5.69337 8.8514,-5.02465 1.44596,0.27641 9.58996,7.60672 19.17044,17.25504 13.31839,13.41271 16.6565,17.35696 16.6565,19.68101 0,4.01877 -4.35706,8.14291 -8.6028,8.14291 -2.89597,0 -5.49182,-2.09406 -18.57443,-14.98392 z M 81.060714,461.08347 c -4.13881,-5.26164 -2.654694,-7.7445 15.355306,-25.68873 15.90293,-15.84487 16.51993,-16.32834 20.41859,-16 5.18603,0.43677 8.6022,4.55654 7.5008,9.04571 -0.47311,1.92836 -6.63201,8.92737 -16.97704,19.29286 -14.998302,15.02795 -16.53037,16.26666 -20.119052,16.26666 -2.961714,0 -4.429461,-0.69282 -6.178604,-2.9165 z M 438.77493,447.73331 c -10.34503,-10.36549 -16.50393,-17.3645 -16.97704,-19.29286 -1.1014,-4.48917 2.31477,-8.60894 7.5008,-9.04571 3.89866,-0.32834 4.51566,0.15513 20.41859,16 18.01,17.94423 19.49412,20.42709 15.35531,25.68873 -1.74915,2.22368 -3.2169,2.9165 -6.17861,2.9165 -3.58869,0 -5.12075,-1.23871 -20.11905,-16.26666 z M 266.66665,191.98673 c -20.62792,-3.55903 -36.18245,-18.8751 -39.61779,-39.01046 -4.21552,-24.70824 12.28801,-48.11145 37.98222,-53.861557 12.99624,-2.908431 30.69817,2.582807 40.75905,12.643677 25.27717,25.27717 15.25242,67.80262 -18.4889,78.43072 -6.78129,2.13602 -14.68327,2.82441 -20.63458,1.79762 z m -4.16029,-37.19172 c 2.07552,-1.68066 2.54565,-3.23667 2.9063,-9.6192 0.51989,-9.20088 -0.93741,-13.29923 -5.3839,-15.14102 -3.91376,-1.62113 -7.97823,0.14308 -10.13096,4.39745 -2.96379,5.8572 -0.90534,20.02363 3.14641,21.65384 2.94299,1.1841 7.10711,0.61592 9.46215,-1.29107 z M 35.573186,80.800746 C 17.304601,62.467001 1.8271208,46.41822 1.1787877,45.136788 -1.0051946,40.820144 -0.23572391,34.773087 3.0675699,30.293372 10.461845,20.265733 18.602778,15.250323 25.411786,16.527701 c 3.061782,0.574394 8.770537,5.645558 31.726608,28.183182 15.396162,15.115514 30.761938,30.473517 34.14617,34.128891 l 6.153151,6.646137 -14.324459,14.324458 -14.324458,14.324461 z m 427.435394,19.00801 -14.30355,-14.333048 6.14842,-6.641035 c 3.38165,-3.65257 18.74529,-19.008276 34.14145,-34.12379 22.95608,-22.537624 28.66483,-27.608788 31.72661,-28.183182 6.80902,-1.277378 14.94995,3.738032 22.34422,13.765671 3.47086,4.706947 4.06161,10.607684 1.53772,15.359596 -0.84141,1.584199 -16.32617,17.642269 -34.41059,35.684598 l -32.88074,32.804244 z"
       id="path195"
       inkscape:connector-curvature="0" />
    <path
       style="fill:#ed502e;stroke-width:1.0666666"
       d="m 110.39999,527.05649 c -1.76,-1.10118 -4.98223,-3.86144 -7.16052,-6.13389 l -3.960525,-4.13172 4.785425,0.3806 c 12.86827,1.02345 12.84698,1.05188 40.14239,-53.60967 l 23.4785,-47.01782 -0.44614,-6.16793 -0.44616,-6.16792 4.72533,4.56259 c 2.59894,2.50942 5.39052,6.10716 6.20352,7.99498 3.39517,7.88377 2.97869,8.99453 -22.40429,59.75219 -22.75782,45.50819 -24.0832,47.86994 -28.14523,50.15293 -5.29884,2.97811 -12.36903,3.14069 -16.7723,0.38566 z m 308.41837,-0.41436 c -3.85083,-2.22303 -5.64802,-5.44053 -27.99999,-50.12843 -25.38611,-50.75397 -25.80229,-51.86368 -22.40688,-59.74799 0.813,-1.88782 3.60458,-5.48556 6.20352,-7.99498 l 4.72533,-4.56259 -0.44616,6.16792 -0.44614,6.16793 23.4785,47.01782 c 27.29695,54.66464 27.27339,54.63318 40.14708,53.60929 l 4.79009,-0.38097 -4.49853,4.6238 c -2.4742,2.54309 -5.7947,5.30531 -7.3789,6.13826 -4.27268,2.2465 -11.39438,1.84563 -16.16792,-0.91006 z M 100.75151,480.58178 c -5.121924,-5.12192 -4.122601,-6.9162 14.03832,-25.20573 9.58048,-9.64832 17.72448,-16.97863 19.17044,-17.25504 3.49815,-0.66872 7.10265,1.37744 8.8514,5.02465 1.30234,2.71613 1.25383,3.50018 -0.40738,6.58485 -1.03716,1.92589 -8.72934,10.24438 -17.09373,18.48554 -13.08261,12.88986 -15.67846,14.98392 -18.57443,14.98392 -2.15202,0 -4.31093,-0.94449 -5.98462,-2.61819 z m 320.07123,-12.36573 c -8.36439,-8.24116 -16.05657,-16.55965 -17.09373,-18.48554 -1.66121,-3.08467 -1.70972,-3.86872 -0.40738,-6.58485 1.74875,-3.64721 5.35325,-5.69337 8.8514,-5.02465 1.44596,0.27641 9.58996,7.60672 19.17044,17.25504 13.31839,13.41271 16.6565,17.35696 16.6565,19.68101 0,4.01877 -4.35706,8.14291 -8.6028,8.14291 -2.89597,0 -5.49182,-2.09406 -18.57443,-14.98392 z M 81.060714,461.08347 c -4.13881,-5.26164 -2.654694,-7.7445 15.355306,-25.68873 15.90293,-15.84487 16.51993,-16.32834 20.41859,-16 5.18603,0.43677 8.6022,4.55654 7.5008,9.04571 -0.47311,1.92836 -6.63201,8.92737 -16.97704,19.29286 -14.998302,15.02795 -16.53037,16.26666 -20.119052,16.26666 -2.961714,0 -4.429461,-0.69282 -6.178604,-2.9165 z M 438.77493,447.73331 c -10.34503,-10.36549 -16.50393,-17.3645 -16.97704,-19.29286 -1.1014,-4.48917 2.31477,-8.60894 7.5008,-9.04571 3.89866,-0.32834 4.51566,0.15513 20.41859,16 18.01,17.94423 19.49412,20.42709 15.35531,25.68873 -1.74915,2.22368 -3.2169,2.9165 -6.17861,2.9165 -3.58869,0 -5.12075,-1.23871 -20.11905,-16.26666 z M 266.66665,191.98673 c -20.62792,-3.55903 -36.18245,-18.8751 -39.61779,-39.01046 -4.21552,-24.70824 12.28801,-48.11145 37.98222,-53.861557 12.99624,-2.908431 30.69817,2.582807 40.75905,12.643677 25.27717,25.27717 15.25242,67.80262 -18.4889,78.43072 -6.78129,2.13602 -14.68327,2.82441 -20.63458,1.79762 z m -4.16029,-37.19172 c 2.07552,-1.68066 2.54565,-3.23667 2.9063,-9.6192 0.51989,-9.20088 -0.93741,-13.29923 -5.3839,-15.14102 -3.91376,-1.62113 -7.97823,0.14308 -10.13096,4.39745 -2.96379,5.8572 -0.90534,20.02363 3.14641,21.65384 2.94299,1.1841 7.10711,0.61592 9.46215,-1.29107 z M 35.030103,80.266662 C -0.25734963,44.790764 -1.4588873,43.208699 0.90179088,35.32989 1.5829157,33.056623 4.4570528,29.098749 7.8852686,25.713188 l 5.8259634,-5.753478 -0.857358,3.801414 c -1.702953,7.550674 -0.919691,8.663873 23.257034,33.053734 l 23.011993,23.214861 8.299454,-8.250778 8.299455,-8.250778 5.878867,5.805839 5.878865,5.80584 -8.24051,8.289126 -8.24051,8.289127 5.033968,5.11082 5.03397,5.110815 -5.633441,5.56346 c -3.098392,3.05991 -6.115774,5.56347 -6.705294,5.56347 -0.58952,0 -15.75345,-14.759999 -33.697622,-32.799998 z m 435.609797,27.176278 -5.55388,-5.62373 5.03743,-5.037432 5.03743,-5.037428 -8.25356,-8.302255 -8.25357,-8.302253 5.87887,-5.80584 5.87887,-5.805839 8.29946,8.250778 8.29945,8.250778 23.01199,-23.214861 c 24.17672,-24.389861 24.95999,-25.50306 23.25703,-33.053734 l -0.85735,-3.801414 5.82596,5.753478 c 3.42821,3.385561 6.30236,7.343435 6.98348,9.616702 2.36068,7.878809 1.15914,9.460874 -34.12831,44.936772 -17.94418,18.039999 -33.13959,32.799998 -33.7676,32.799998 -0.62801,0 -3.64108,-2.53068 -6.6957,-5.62372 z"
       id="path193"
       inkscape:connector-curvature="0" />
    <path
       style="fill:#1092ac;stroke-width:1.0666666"
       d="M 35.030103,80.266662 C -0.25734963,44.790764 -1.4588873,43.208699 0.90179088,35.32989 1.5829157,33.056623 4.4570528,29.098749 7.8852686,25.713188 l 5.8259634,-5.753478 -0.857358,3.801414 c -1.702953,7.550674 -0.919691,8.663873 23.257034,33.053734 l 23.011993,23.214861 8.299454,-8.250778 8.299455,-8.250778 5.878867,5.805839 5.878865,5.80584 -8.24051,8.289126 -8.24051,8.289127 5.033968,5.11082 5.03397,5.110815 -5.633441,5.56346 c -3.098392,3.05991 -6.115774,5.56347 -6.705294,5.56347 -0.58952,0 -15.75345,-14.759999 -33.697622,-32.799998 z m 435.609797,27.176278 -5.55388,-5.62373 5.03743,-5.037432 5.03743,-5.037428 -8.25356,-8.302255 -8.25357,-8.302253 5.87887,-5.80584 5.87887,-5.805839 8.29946,8.250778 8.29945,8.250778 23.01199,-23.214861 c 24.17672,-24.389861 24.95999,-25.50306 23.25703,-33.053734 l -0.85735,-3.801414 5.82596,5.753478 c 3.42821,3.385561 6.30236,7.343435 6.98348,9.616702 2.36068,7.878809 1.15914,9.460874 -34.12831,44.936772 -17.94418,18.039999 -33.13959,32.799998 -33.7676,32.799998 -0.62801,0 -3.64108,-2.53068 -6.6957,-5.62372 z"
       id="path191"
       inkscape:connector-curvature="0" />
  </g>
</svg>
